<svg xmlns="http://www.w3.org/2000/svg" xmlns:xlink="http://www.w3.org/1999/xlink" viewBox="0 0 3185 2935.15"><defs><style>.cls-1{fill:none;}.cls-2{fill:url(#linear-gradient);}.cls-3{fill:url(#linear-gradient-2);}.cls-4{isolation:isolate;}.cls-5{fill:#9a7fcc;}.cls-6{clip-path:url(#clip-path);}.cls-7{fill:#7829db;}.cls-8{clip-path:url(#clip-path-2);}.cls-171,.cls-177,.cls-183,.cls-186,.cls-9{opacity:0.3;}.cls-12,.cls-161,.cls-9{mix-blend-mode:soft-light;}.cls-10{clip-path:url(#clip-path-3);}.cls-11,.cls-161{fill:#fff;}.cls-12{opacity:0.5;}.cls-13{clip-path:url(#clip-path-4);}.cls-14{fill:#bfc8d6;}.cls-15{fill:#d8dee8;}.cls-16{fill:url(#linear-gradient-5);}.cls-17{opacity:0.69;}.cls-18{fill:url(#linear-gradient-6);}.cls-19{fill:url(#linear-gradient-7);}.cls-20{fill:url(#linear-gradient-8);}.cls-21{fill:url(#linear-gradient-9);}.cls-22{fill:url(#linear-gradient-10);}.cls-23{fill:url(#linear-gradient-11);}.cls-24{fill:url(#linear-gradient-12);}.cls-25{fill:url(#linear-gradient-13);}.cls-26{fill:url(#linear-gradient-14);}.cls-27{fill:url(#linear-gradient-15);}.cls-28{fill:url(#linear-gradient-16);}.cls-29{fill:url(#linear-gradient-17);}.cls-30{fill:url(#linear-gradient-18);}.cls-31{fill:url(#linear-gradient-19);}.cls-32{fill:url(#linear-gradient-20);}.cls-33{fill:url(#linear-gradient-21);}.cls-34{fill:url(#linear-gradient-22);}.cls-35{fill:url(#linear-gradient-23);}.cls-36{fill:url(#linear-gradient-24);}.cls-37{fill:url(#linear-gradient-25);}.cls-38{fill:url(#linear-gradient-26);}.cls-39{fill:url(#linear-gradient-27);}.cls-40{fill:url(#linear-gradient-28);}.cls-41{fill:url(#linear-gradient-29);}.cls-42{fill:url(#linear-gradient-30);}.cls-43{fill:url(#linear-gradient-31);}.cls-44{fill:url(#linear-gradient-32);}.cls-45{fill:url(#linear-gradient-33);}.cls-46{fill:url(#linear-gradient-34);}.cls-47{fill:url(#linear-gradient-35);}.cls-48{fill:url(#linear-gradient-36);}.cls-49{fill:url(#linear-gradient-37);}.cls-50{fill:url(#linear-gradient-38);}.cls-51{fill:url(#linear-gradient-39);}.cls-52{fill:url(#linear-gradient-40);}.cls-53{fill:url(#linear-gradient-41);}.cls-54{fill:url(#linear-gradient-42);}.cls-55{fill:url(#linear-gradient-43);}.cls-56{fill:url(#linear-gradient-44);}.cls-57{fill:url(#linear-gradient-45);}.cls-58{fill:url(#linear-gradient-46);}.cls-59{fill:url(#linear-gradient-47);}.cls-60{fill:url(#linear-gradient-48);}.cls-61{fill:url(#linear-gradient-49);}.cls-62{fill:url(#linear-gradient-50);}.cls-63{fill:url(#linear-gradient-51);}.cls-64{fill:url(#linear-gradient-52);}.cls-65{fill:url(#linear-gradient-53);}.cls-66{fill:url(#linear-gradient-54);}.cls-67{fill:url(#linear-gradient-55);}.cls-68{fill:url(#linear-gradient-56);}.cls-69{fill:url(#linear-gradient-57);}.cls-70{fill:url(#linear-gradient-58);}.cls-71{fill:url(#linear-gradient-59);}.cls-72{fill:url(#linear-gradient-60);}.cls-73{fill:url(#linear-gradient-61);}.cls-74{fill:url(#linear-gradient-62);}.cls-75{fill:url(#linear-gradient-63);}.cls-76{fill:url(#linear-gradient-64);}.cls-77{fill:url(#linear-gradient-65);}.cls-78{fill:url(#linear-gradient-66);}.cls-79{fill:url(#linear-gradient-67);}.cls-80{fill:url(#linear-gradient-68);}.cls-81{fill:url(#linear-gradient-69);}.cls-82{fill:url(#linear-gradient-70);}.cls-83{fill:url(#linear-gradient-71);}.cls-84{fill:url(#linear-gradient-72);}.cls-85{fill:url(#linear-gradient-73);}.cls-86{fill:url(#linear-gradient-74);}.cls-87{fill:url(#linear-gradient-75);}.cls-88{fill:url(#linear-gradient-76);}.cls-89{fill:url(#linear-gradient-77);}.cls-90{fill:url(#linear-gradient-78);}.cls-91{fill:url(#linear-gradient-79);}.cls-92{fill:url(#linear-gradient-80);}.cls-93{fill:url(#linear-gradient-81);}.cls-94{fill:url(#linear-gradient-82);}.cls-95{fill:url(#linear-gradient-83);}.cls-96{fill:url(#linear-gradient-84);}.cls-97{fill:url(#linear-gradient-85);}.cls-98{fill:url(#linear-gradient-86);}.cls-99{fill:url(#linear-gradient-87);}.cls-100{fill:url(#linear-gradient-88);}.cls-101{fill:url(#linear-gradient-89);}.cls-102{fill:url(#linear-gradient-90);}.cls-103{fill:url(#linear-gradient-91);}.cls-104{fill:url(#linear-gradient-92);}.cls-105{fill:url(#linear-gradient-93);}.cls-106{fill:url(#linear-gradient-94);}.cls-107{fill:url(#linear-gradient-95);}.cls-108{fill:url(#linear-gradient-96);}.cls-109{fill:url(#linear-gradient-97);}.cls-110{fill:url(#linear-gradient-98);}.cls-111{fill:url(#linear-gradient-99);}.cls-112{fill:url(#linear-gradient-100);}.cls-113{fill:url(#linear-gradient-101);}.cls-114{fill:url(#linear-gradient-102);}.cls-115{fill:url(#linear-gradient-103);}.cls-116{fill:url(#linear-gradient-104);}.cls-117{fill:url(#linear-gradient-105);}.cls-118{fill:url(#linear-gradient-106);}.cls-119{fill:url(#linear-gradient-107);}.cls-120{fill:url(#linear-gradient-108);}.cls-121{fill:url(#linear-gradient-109);}.cls-122{fill:url(#linear-gradient-110);}.cls-123{fill:url(#linear-gradient-111);}.cls-124{fill:url(#linear-gradient-112);}.cls-125{fill:url(#linear-gradient-113);}.cls-126{fill:url(#linear-gradient-114);}.cls-127{fill:url(#linear-gradient-115);}.cls-128{fill:url(#linear-gradient-116);}.cls-129{fill:url(#linear-gradient-117);}.cls-130{fill:url(#linear-gradient-118);}.cls-131{fill:url(#linear-gradient-119);}.cls-132{fill:url(#linear-gradient-120);}.cls-133{fill:url(#linear-gradient-121);}.cls-134{fill:url(#linear-gradient-122);}.cls-135{fill:url(#linear-gradient-123);}.cls-136{fill:url(#linear-gradient-124);}.cls-137{fill:url(#linear-gradient-125);}.cls-138{fill:url(#linear-gradient-126);}.cls-139{fill:url(#linear-gradient-127);}.cls-140{fill:url(#linear-gradient-128);}.cls-141{fill:url(#linear-gradient-129);}.cls-142{fill:url(#linear-gradient-130);}.cls-143{fill:url(#linear-gradient-131);}.cls-144{fill:url(#linear-gradient-132);}.cls-145{fill:url(#linear-gradient-133);}.cls-146{fill:url(#linear-gradient-134);}.cls-147{fill:url(#linear-gradient-135);}.cls-148{fill:url(#linear-gradient-136);}.cls-149{fill:url(#linear-gradient-137);}.cls-150{fill:url(#linear-gradient-138);}.cls-151{fill:url(#linear-gradient-139);}.cls-152{fill:url(#linear-gradient-140);}.cls-153{fill:url(#linear-gradient-141);}.cls-154{fill:url(#linear-gradient-142);}.cls-155{fill:url(#linear-gradient-143);}.cls-156{fill:url(#linear-gradient-144);}.cls-157{fill:url(#linear-gradient-145);}.cls-158{fill:url(#linear-gradient-146);}.cls-159{fill:url(#linear-gradient-147);}.cls-160{fill:url(#linear-gradient-148);}.cls-161{opacity:0.35;}.cls-162{fill:url(#linear-gradient-149);}.cls-163{fill:url(#linear-gradient-150);}.cls-164{fill:url(#linear-gradient-151);}.cls-165{fill:url(#linear-gradient-152);}.cls-166{fill:url(#linear-gradient-153);}.cls-167{fill:url(#linear-gradient-154);}.cls-168{fill:url(#linear-gradient-155);}.cls-169{fill:url(#linear-gradient-156);}.cls-170{fill:url(#linear-gradient-157);}.cls-171,.cls-177,.cls-186{mix-blend-mode:multiply;}.cls-171{fill:url(#linear-gradient-158);}.cls-172{fill:url(#linear-gradient-159);}.cls-173{fill:url(#linear-gradient-160);}.cls-174{fill:url(#linear-gradient-161);}.cls-175{fill:url(#linear-gradient-162);}.cls-176{fill:url(#linear-gradient-163);}.cls-177{fill:url(#linear-gradient-164);}.cls-178{fill:url(#linear-gradient-165);}.cls-179{fill:url(#linear-gradient-166);}.cls-180{fill:url(#linear-gradient-167);}.cls-181{fill:url(#linear-gradient-168);}.cls-182{fill:url(#linear-gradient-169);}.cls-183{mix-blend-mode:color-burn;}.cls-184{fill:url(#linear-gradient-170);}.cls-185{fill:url(#linear-gradient-171);}.cls-187{fill:url(#linear-gradient-172);}.cls-188{fill:url(#linear-gradient-173);}.cls-189{fill:url(#linear-gradient-174);}.cls-190{fill:url(#linear-gradient-175);}.cls-191{fill:url(#linear-gradient-176);}.cls-192{fill:url(#linear-gradient-177);}.cls-193{fill:#f4f7fa;}.cls-194{fill:url(#linear-gradient-178);}.cls-195{fill:url(#linear-gradient-179);}.cls-196{fill:url(#linear-gradient-180);}.cls-197{fill:#7b45ff;}.cls-198{fill:#a896e0;}</style><linearGradient id="linear-gradient" x1="524" y1="569.36" x2="1099.74" y2="1315.92" gradientUnits="userSpaceOnUse"><stop offset="0" stop-color="#aa80f9"/><stop offset="1" stop-color="#6165d7"/></linearGradient><linearGradient id="linear-gradient-2" x1="1973.08" y1="1452.75" x2="1073.06" y2="1828.91" gradientUnits="userSpaceOnUse"><stop offset="0" stop-color="#ff9085"/><stop offset="1" stop-color="#fb6fbb"/></linearGradient><clipPath id="clip-path"><path class="cls-1" d="M2156.78,2251.45c-131-62-313.12-172.66-443-370.15-170.31-259-101.1-439.86-269.07-917.11-106.2-301.76-183.36-511.29-373.38-575.48-148.92-50.3-349.31-5.34-440.92,115.2-76.17,100.22-86,264.41-69.88,374.14,13.18,89.43,44.37,147.41,9.83,207.87-35.29,61.79-97.6,53.29-133.46,102.18-72.73,99.16,55.34,308.84,76,342.73,230.26,377,695.6,531.43,899.4,596.36C1580.87,2180.88,1834.79,2243,2156.78,2251.45Z"/></clipPath><clipPath id="clip-path-2"><path class="cls-1" d="M1997.63,2204.21c-166.35,118.49-396.12,241.8-668.75,277.46-69.58,9.1-499.38,65.33-570.09-131.82-24.91-69.45,15.77-111.69-16.09-205-37.76-110.59-119-122.07-229.75-215.29-66.06-55.62-259.38-218.4-226-407,20-112.67,120-229.45,227.65-268.85C672.55,1196,816,1315.94,1056,1523.25c212.7,183.76,231.74,252.12,386.77,381.74C1557.81,2001.19,1735,2120.47,1997.63,2204.21Z"/></clipPath><clipPath id="clip-path-3"><path class="cls-2" d="M2156.78,2251.45c-131-62-313.12-172.66-443-370.15-170.31-259-101.1-439.86-269.07-917.11-106.2-301.76-183.36-511.29-373.38-575.48-148.92-50.3-349.31-5.34-440.92,115.2-76.17,100.22-86,264.41-69.88,374.14,13.18,89.43,44.37,147.41,9.83,207.87-35.29,61.79-97.6,53.29-133.46,102.18-72.73,99.16,55.34,308.84,76,342.73,230.26,377,695.6,531.43,899.4,596.36C1580.87,2180.88,1834.79,2243,2156.78,2251.45Z"/></clipPath><clipPath id="clip-path-4"><path class="cls-3" d="M1997.63,2204.21c-166.35,118.49-396.12,241.8-668.75,277.46-69.58,9.1-499.38,65.33-570.09-131.82-24.91-69.45,15.77-111.69-16.09-205-37.76-110.59-119-122.07-229.75-215.29-66.06-55.62-259.38-218.4-226-407,20-112.67,120-229.45,227.65-268.85C672.55,1196,816,1315.94,1056,1523.25c212.7,183.76,231.74,252.12,386.77,381.74C1557.81,2001.19,1735,2120.47,1997.63,2204.21Z"/></clipPath><linearGradient id="linear-gradient-5" x1="2349.47" y1="326.32" x2="2804.64" y2="581.4" gradientUnits="userSpaceOnUse"><stop offset="0" stop-color="#444b8c"/><stop offset="1" stop-color="#26264f"/></linearGradient><linearGradient id="linear-gradient-6" x1="2271.5" y1="398.12" x2="2282.84" y2="571" xlink:href="#linear-gradient-2"/><linearGradient id="linear-gradient-7" x1="2312.71" y1="505.56" x2="2314.23" y2="528.7" xlink:href="#linear-gradient-2"/><linearGradient id="linear-gradient-8" x1="2348.3" y1="436.11" x2="2356.09" y2="554.95" xlink:href="#linear-gradient-2"/><linearGradient id="linear-gradient-9" x1="2387.54" y1="485.16" x2="2391" y2="537.92" xlink:href="#linear-gradient-2"/><linearGradient id="linear-gradient-10" x1="2423.19" y1="426.56" x2="2431.77" y2="557.35" xlink:href="#linear-gradient-2"/><linearGradient id="linear-gradient-11" x1="2461.64" y1="456.86" x2="2467.6" y2="547.74" xlink:href="#linear-gradient-2"/><linearGradient id="linear-gradient-12" x1="2497.29" y1="406.38" x2="2507.5" y2="562.04" xlink:href="#linear-gradient-2"/><linearGradient id="linear-gradient-13" x1="2534.07" y1="393.43" x2="2545.29" y2="564.59" xlink:href="#linear-gradient-2"/><linearGradient id="linear-gradient-14" x1="2573.5" y1="460.35" x2="2579.19" y2="547.12" xlink:href="#linear-gradient-2"/><linearGradient id="linear-gradient-15" x1="2607.69" y1="379.13" x2="2619.93" y2="565.74" xlink:href="#linear-gradient-2"/><linearGradient id="linear-gradient-16" x1="2645.37" y1="400.82" x2="2655.8" y2="559.91" xlink:href="#linear-gradient-2"/><linearGradient id="linear-gradient-17" x1="2685.6" y1="496.05" x2="2688.52" y2="540.55" xlink:href="#linear-gradient-2"/><linearGradient id="linear-gradient-18" x1="2720.62" y1="448.72" x2="2727.24" y2="549.66" xlink:href="#linear-gradient-2"/><linearGradient id="linear-gradient-19" x1="2755.88" y1="411.49" x2="2765.33" y2="555.62" xlink:href="#linear-gradient-2"/><linearGradient id="linear-gradient-20" x1="2793.61" y1="444.46" x2="2800.54" y2="550.12" xlink:href="#linear-gradient-2"/><linearGradient id="linear-gradient-21" x1="2828.16" y1="394.36" x2="2838.8" y2="556.6" xlink:href="#linear-gradient-2"/><linearGradient id="linear-gradient-22" x1="2863.84" y1="377.88" x2="2875.63" y2="557.67" xlink:href="#linear-gradient-2"/><linearGradient id="linear-gradient-23" x1="2350.65" y1="621.23" x2="2803.4" y2="874.96" xlink:href="#linear-gradient-5"/><linearGradient id="linear-gradient-24" x1="2271.51" y1="695.75" x2="2282.83" y2="868.32" xlink:href="#linear-gradient-2"/><linearGradient id="linear-gradient-25" x1="2312.72" y1="802.78" x2="2314.21" y2="825.61" xlink:href="#linear-gradient-2"/><linearGradient id="linear-gradient-26" x1="2348.31" y1="732.91" x2="2356.08" y2="851.44" xlink:href="#linear-gradient-2"/><linearGradient id="linear-gradient-27" x1="2387.55" y1="781.55" x2="2390.99" y2="834" xlink:href="#linear-gradient-2"/><linearGradient id="linear-gradient-28" x1="2423.2" y1="722.53" x2="2431.76" y2="853.02" xlink:href="#linear-gradient-2"/><linearGradient id="linear-gradient-29" x1="2461.65" y1="752.42" x2="2467.59" y2="843" xlink:href="#linear-gradient-2"/><linearGradient id="linear-gradient-30" x1="2497.3" y1="701.53" x2="2507.49" y2="856.89" xlink:href="#linear-gradient-2"/><linearGradient id="linear-gradient-31" x1="2534.08" y1="688.17" x2="2545.28" y2="859.03" xlink:href="#linear-gradient-2"/><linearGradient id="linear-gradient-32" x1="2573.51" y1="754.68" x2="2579.18" y2="841.15" xlink:href="#linear-gradient-2"/><linearGradient id="linear-gradient-33" x1="2607.7" y1="673.06" x2="2619.92" y2="859.36" xlink:href="#linear-gradient-2"/><linearGradient id="linear-gradient-34" x1="2645.38" y1="694.34" x2="2655.79" y2="853.13" xlink:href="#linear-gradient-2"/><linearGradient id="linear-gradient-35" x1="2685.61" y1="789.16" x2="2688.5" y2="833.36" xlink:href="#linear-gradient-2"/><linearGradient id="linear-gradient-36" x1="2720.63" y1="741.43" x2="2727.23" y2="842.07" xlink:href="#linear-gradient-2"/><linearGradient id="linear-gradient-37" x1="2755.89" y1="703.81" x2="2765.32" y2="847.63" xlink:href="#linear-gradient-2"/><linearGradient id="linear-gradient-38" x1="2793.62" y1="736.37" x2="2800.53" y2="841.73" xlink:href="#linear-gradient-2"/><linearGradient id="linear-gradient-39" x1="2828.17" y1="685.87" x2="2838.79" y2="847.81" xlink:href="#linear-gradient-2"/><linearGradient id="linear-gradient-40" x1="2863.85" y1="668.99" x2="2875.62" y2="848.49" xlink:href="#linear-gradient-2"/><linearGradient id="linear-gradient-41" x1="2351.82" y1="916.15" x2="2802.15" y2="1168.52" xlink:href="#linear-gradient-5"/><linearGradient id="linear-gradient-42" x1="2271.52" y1="993.38" x2="2282.81" y2="1165.64" xlink:href="#linear-gradient-2"/><linearGradient id="linear-gradient-43" x1="2312.72" y1="1100" x2="2314.2" y2="1122.51" xlink:href="#linear-gradient-2"/><linearGradient id="linear-gradient-44" x1="2348.31" y1="1029.71" x2="2356.07" y2="1147.93" xlink:href="#linear-gradient-2"/><linearGradient id="linear-gradient-45" x1="2387.56" y1="1077.94" x2="2390.98" y2="1130.08" xlink:href="#linear-gradient-2"/><linearGradient id="linear-gradient-46" x1="2423.21" y1="1018.51" x2="2431.75" y2="1148.69" xlink:href="#linear-gradient-2"/><linearGradient id="linear-gradient-47" x1="2461.66" y1="1047.99" x2="2467.58" y2="1138.25" xlink:href="#linear-gradient-2"/><linearGradient id="linear-gradient-48" x1="2497.31" y1="996.68" x2="2507.47" y2="1151.73" xlink:href="#linear-gradient-2"/><linearGradient id="linear-gradient-49" x1="2534.09" y1="982.91" x2="2545.27" y2="1153.47" xlink:href="#linear-gradient-2"/><linearGradient id="linear-gradient-50" x1="2573.52" y1="1049.02" x2="2579.17" y2="1135.18" xlink:href="#linear-gradient-2"/><linearGradient id="linear-gradient-51" x1="2607.71" y1="966.99" x2="2619.91" y2="1152.98" xlink:href="#linear-gradient-2"/><linearGradient id="linear-gradient-52" x1="2645.38" y1="987.87" x2="2655.78" y2="1146.35" xlink:href="#linear-gradient-2"/><linearGradient id="linear-gradient-53" x1="2685.62" y1="1082.28" x2="2688.49" y2="1126.18" xlink:href="#linear-gradient-2"/><linearGradient id="linear-gradient-54" x1="2720.64" y1="1034.15" x2="2727.22" y2="1134.48" xlink:href="#linear-gradient-2"/><linearGradient id="linear-gradient-55" x1="2755.9" y1="996.12" x2="2765.31" y2="1139.64" xlink:href="#linear-gradient-2"/><linearGradient id="linear-gradient-56" x1="2793.63" y1="1028.28" x2="2800.52" y2="1133.34" xlink:href="#linear-gradient-2"/><linearGradient id="linear-gradient-57" x1="2828.18" y1="977.38" x2="2838.78" y2="1139.03" xlink:href="#linear-gradient-2"/><linearGradient id="linear-gradient-58" x1="2863.86" y1="960.1" x2="2875.61" y2="1139.3" xlink:href="#linear-gradient-2"/><linearGradient id="linear-gradient-59" x1="2352.99" y1="1211.06" x2="2800.9" y2="1462.08" xlink:href="#linear-gradient-5"/><linearGradient id="linear-gradient-60" x1="2271.52" y1="1291.01" x2="2282.8" y2="1462.96" xlink:href="#linear-gradient-2"/><linearGradient id="linear-gradient-61" x1="2312.73" y1="1397.21" x2="2314.19" y2="1419.42" xlink:href="#linear-gradient-2"/><linearGradient id="linear-gradient-62" x1="2348.32" y1="1326.51" x2="2356.05" y2="1444.42" xlink:href="#linear-gradient-2"/><linearGradient id="linear-gradient-63" x1="2387.56" y1="1374.32" x2="2390.96" y2="1426.16" xlink:href="#linear-gradient-2"/><linearGradient id="linear-gradient-64" x1="2423.22" y1="1314.48" x2="2431.73" y2="1444.35" xlink:href="#linear-gradient-2"/><linearGradient id="linear-gradient-65" x1="2461.67" y1="1343.55" x2="2467.57" y2="1433.51" xlink:href="#linear-gradient-2"/><linearGradient id="linear-gradient-66" x1="2497.31" y1="1291.83" x2="2507.46" y2="1446.58" xlink:href="#linear-gradient-2"/><linearGradient id="linear-gradient-67" x1="2534.1" y1="1277.65" x2="2545.26" y2="1447.9" xlink:href="#linear-gradient-2"/><linearGradient id="linear-gradient-68" x1="2573.53" y1="1343.35" x2="2579.16" y2="1429.21" xlink:href="#linear-gradient-2"/><linearGradient id="linear-gradient-69" x1="2607.72" y1="1260.92" x2="2619.9" y2="1446.61" xlink:href="#linear-gradient-2"/><linearGradient id="linear-gradient-70" x1="2645.39" y1="1281.39" x2="2655.77" y2="1439.57" xlink:href="#linear-gradient-2"/><linearGradient id="linear-gradient-71" x1="2685.62" y1="1375.4" x2="2688.48" y2="1419" xlink:href="#linear-gradient-2"/><linearGradient id="linear-gradient-72" x1="2720.65" y1="1326.86" x2="2727.21" y2="1426.9" xlink:href="#linear-gradient-2"/><linearGradient id="linear-gradient-73" x1="2755.91" y1="1288.43" x2="2765.3" y2="1431.66" xlink:href="#linear-gradient-2"/><linearGradient id="linear-gradient-74" x1="2793.64" y1="1320.19" x2="2800.51" y2="1424.95" xlink:href="#linear-gradient-2"/><linearGradient id="linear-gradient-75" x1="2828.19" y1="1268.89" x2="2838.77" y2="1430.24" xlink:href="#linear-gradient-2"/><linearGradient id="linear-gradient-76" x1="2863.87" y1="1251.21" x2="2875.6" y2="1430.11" xlink:href="#linear-gradient-2"/><linearGradient id="linear-gradient-77" x1="2354.17" y1="1505.98" x2="2799.66" y2="1755.64" xlink:href="#linear-gradient-5"/><linearGradient id="linear-gradient-78" x1="2271.53" y1="1588.64" x2="2282.79" y2="1760.28" xlink:href="#linear-gradient-2"/><linearGradient id="linear-gradient-79" x1="2312.74" y1="1694.43" x2="2314.17" y2="1716.32" xlink:href="#linear-gradient-2"/><linearGradient id="linear-gradient-80" x1="2348.33" y1="1623.31" x2="2356.04" y2="1740.91" xlink:href="#linear-gradient-2"/><linearGradient id="linear-gradient-81" x1="2387.57" y1="1670.71" x2="2390.95" y2="1722.23" xlink:href="#linear-gradient-2"/><linearGradient id="linear-gradient-82" x1="2423.23" y1="1610.46" x2="2431.72" y2="1740.02" xlink:href="#linear-gradient-2"/><linearGradient id="linear-gradient-83" x1="2461.68" y1="1639.11" x2="2467.55" y2="1728.77" xlink:href="#linear-gradient-2"/><linearGradient id="linear-gradient-84" x1="2497.32" y1="1586.99" x2="2507.45" y2="1741.42" xlink:href="#linear-gradient-2"/><linearGradient id="linear-gradient-85" x1="2534.1" y1="1572.4" x2="2545.25" y2="1742.34" xlink:href="#linear-gradient-2"/><linearGradient id="linear-gradient-86" x1="2573.54" y1="1637.69" x2="2579.15" y2="1723.24" xlink:href="#linear-gradient-2"/><linearGradient id="linear-gradient-87" x1="2607.73" y1="1554.85" x2="2619.88" y2="1740.23" xlink:href="#linear-gradient-2"/><linearGradient id="linear-gradient-88" x1="2645.4" y1="1574.91" x2="2655.75" y2="1732.79" xlink:href="#linear-gradient-2"/><linearGradient id="linear-gradient-89" x1="2685.63" y1="1668.52" x2="2688.47" y2="1711.81" xlink:href="#linear-gradient-2"/><linearGradient id="linear-gradient-90" x1="2720.66" y1="1619.58" x2="2727.2" y2="1719.31" xlink:href="#linear-gradient-2"/><linearGradient id="linear-gradient-91" x1="2755.92" y1="1580.74" x2="2765.29" y2="1723.67" xlink:href="#linear-gradient-2"/><linearGradient id="linear-gradient-92" x1="2793.65" y1="1612.1" x2="2800.5" y2="1716.56" xlink:href="#linear-gradient-2"/><linearGradient id="linear-gradient-93" x1="2828.2" y1="1560.4" x2="2838.76" y2="1721.45" xlink:href="#linear-gradient-2"/><linearGradient id="linear-gradient-94" x1="2863.88" y1="1542.32" x2="2875.59" y2="1720.93" xlink:href="#linear-gradient-2"/><linearGradient id="linear-gradient-95" x1="2355.34" y1="1800.89" x2="2798.41" y2="2049.2" xlink:href="#linear-gradient-5"/><linearGradient id="linear-gradient-96" x1="2271.54" y1="1886.28" x2="2282.77" y2="2057.6" xlink:href="#linear-gradient-2"/><linearGradient id="linear-gradient-97" x1="2312.74" y1="1991.64" x2="2314.16" y2="2013.23" xlink:href="#linear-gradient-2"/><linearGradient id="linear-gradient-98" x1="2348.34" y1="1920.11" x2="2356.03" y2="2037.4" xlink:href="#linear-gradient-2"/><linearGradient id="linear-gradient-99" x1="2387.58" y1="1967.1" x2="2390.94" y2="2018.31" xlink:href="#linear-gradient-2"/><linearGradient id="linear-gradient-100" x1="2423.23" y1="1906.43" x2="2431.71" y2="2035.68" xlink:href="#linear-gradient-2"/><linearGradient id="linear-gradient-101" x1="2461.68" y1="1934.67" x2="2467.54" y2="2024.02" xlink:href="#linear-gradient-2"/><linearGradient id="linear-gradient-102" x1="2497.33" y1="1882.14" x2="2507.44" y2="2036.27" xlink:href="#linear-gradient-2"/><linearGradient id="linear-gradient-103" x1="2534.11" y1="1867.14" x2="2545.24" y2="2036.78" xlink:href="#linear-gradient-2"/><linearGradient id="linear-gradient-104" x1="2573.55" y1="1932.02" x2="2579.14" y2="2017.27" xlink:href="#linear-gradient-2"/><linearGradient id="linear-gradient-105" x1="2607.74" y1="1848.77" x2="2619.87" y2="2033.86" xlink:href="#linear-gradient-2"/><linearGradient id="linear-gradient-106" x1="2645.41" y1="1868.43" x2="2655.74" y2="2026.01" xlink:href="#linear-gradient-2"/><linearGradient id="linear-gradient-107" x1="2685.64" y1="1961.64" x2="2688.46" y2="2004.63" xlink:href="#linear-gradient-2"/><linearGradient id="linear-gradient-108" x1="2720.67" y1="1912.29" x2="2727.19" y2="2011.72" xlink:href="#linear-gradient-2"/><linearGradient id="linear-gradient-109" x1="2755.93" y1="1873.05" x2="2765.28" y2="2015.68" xlink:href="#linear-gradient-2"/><linearGradient id="linear-gradient-110" x1="2793.66" y1="1904.01" x2="2800.49" y2="2008.17" xlink:href="#linear-gradient-2"/><linearGradient id="linear-gradient-111" x1="2828.21" y1="1851.91" x2="2838.75" y2="2012.66" xlink:href="#linear-gradient-2"/><linearGradient id="linear-gradient-112" x1="2863.89" y1="1833.43" x2="2875.58" y2="2011.74" xlink:href="#linear-gradient-2"/><linearGradient id="linear-gradient-113" x1="2356.51" y1="2095.81" x2="2797.16" y2="2342.76" xlink:href="#linear-gradient-5"/><linearGradient id="linear-gradient-114" x1="2271.54" y1="2183.91" x2="2282.76" y2="2354.92" xlink:href="#linear-gradient-2"/><linearGradient id="linear-gradient-115" x1="2312.75" y1="2288.86" x2="2314.15" y2="2310.13" xlink:href="#linear-gradient-2"/><linearGradient id="linear-gradient-116" x1="2348.34" y1="2216.91" x2="2356.01" y2="2333.89" xlink:href="#linear-gradient-2"/><linearGradient id="linear-gradient-117" x1="2387.59" y1="2263.48" x2="2390.92" y2="2314.39" xlink:href="#linear-gradient-2"/><linearGradient id="linear-gradient-118" x1="2423.24" y1="2202.41" x2="2431.7" y2="2331.35" xlink:href="#linear-gradient-2"/><linearGradient id="linear-gradient-119" x1="2461.69" y1="2230.24" x2="2467.53" y2="2319.28" xlink:href="#linear-gradient-2"/><linearGradient id="linear-gradient-120" x1="2497.34" y1="2177.29" x2="2507.43" y2="2331.12" xlink:href="#linear-gradient-2"/><linearGradient id="linear-gradient-121" x1="2534.12" y1="2161.89" x2="2545.22" y2="2331.22" xlink:href="#linear-gradient-2"/><linearGradient id="linear-gradient-122" x1="2573.55" y1="2226.36" x2="2579.12" y2="2311.3" xlink:href="#linear-gradient-2"/><linearGradient id="linear-gradient-123" x1="2607.75" y1="2142.7" x2="2619.86" y2="2327.48" xlink:href="#linear-gradient-2"/><linearGradient id="linear-gradient-124" x1="2645.42" y1="2161.96" x2="2655.73" y2="2319.22" xlink:href="#linear-gradient-2"/><linearGradient id="linear-gradient-125" x1="2685.65" y1="2254.75" x2="2688.45" y2="2297.44" xlink:href="#linear-gradient-2"/><linearGradient id="linear-gradient-126" x1="2720.68" y1="2205" x2="2727.18" y2="2304.13" xlink:href="#linear-gradient-2"/><linearGradient id="linear-gradient-127" x1="2755.94" y1="2165.36" x2="2765.27" y2="2307.69" xlink:href="#linear-gradient-2"/><linearGradient id="linear-gradient-128" x1="2793.67" y1="2195.92" x2="2800.48" y2="2299.78" xlink:href="#linear-gradient-2"/><linearGradient id="linear-gradient-129" x1="2828.22" y1="2143.42" x2="2838.74" y2="2303.87" xlink:href="#linear-gradient-2"/><linearGradient id="linear-gradient-130" x1="2863.9" y1="2124.55" x2="2875.57" y2="2302.55" xlink:href="#linear-gradient-2"/><linearGradient id="linear-gradient-131" x1="2357.69" y1="2390.72" x2="2795.92" y2="2636.32" xlink:href="#linear-gradient-5"/><linearGradient id="linear-gradient-132" x1="2271.55" y1="2481.54" x2="2282.74" y2="2652.24" xlink:href="#linear-gradient-2"/><linearGradient id="linear-gradient-133" x1="2312.76" y1="2586.07" x2="2314.13" y2="2607.03" xlink:href="#linear-gradient-2"/><linearGradient id="linear-gradient-134" x1="2348.35" y1="2513.71" x2="2356" y2="2630.38" xlink:href="#linear-gradient-2"/><linearGradient id="linear-gradient-135" x1="2387.59" y1="2559.87" x2="2390.91" y2="2610.47" xlink:href="#linear-gradient-2"/><linearGradient id="linear-gradient-136" x1="2423.25" y1="2498.38" x2="2431.68" y2="2627.02" xlink:href="#linear-gradient-2"/><linearGradient id="linear-gradient-137" x1="2461.7" y1="2525.8" x2="2467.52" y2="2614.53" xlink:href="#linear-gradient-2"/><linearGradient id="linear-gradient-138" x1="2497.35" y1="2472.44" x2="2507.41" y2="2625.96" xlink:href="#linear-gradient-2"/><linearGradient id="linear-gradient-139" x1="2534.13" y1="2456.63" x2="2545.21" y2="2625.65" xlink:href="#linear-gradient-2"/><linearGradient id="linear-gradient-140" x1="2573.56" y1="2520.7" x2="2579.11" y2="2605.34" xlink:href="#linear-gradient-2"/><linearGradient id="linear-gradient-141" x1="2607.75" y1="2436.63" x2="2619.85" y2="2621.11" xlink:href="#linear-gradient-2"/><linearGradient id="linear-gradient-142" x1="2645.43" y1="2455.48" x2="2655.72" y2="2612.44" xlink:href="#linear-gradient-2"/><linearGradient id="linear-gradient-143" x1="2685.66" y1="2547.87" x2="2688.44" y2="2590.26" xlink:href="#linear-gradient-2"/><linearGradient id="linear-gradient-144" x1="2720.69" y1="2497.72" x2="2727.17" y2="2596.55" xlink:href="#linear-gradient-2"/><linearGradient id="linear-gradient-145" x1="2755.95" y1="2457.68" x2="2765.26" y2="2599.7" xlink:href="#linear-gradient-2"/><linearGradient id="linear-gradient-146" x1="2793.68" y1="2487.83" x2="2800.47" y2="2591.39" xlink:href="#linear-gradient-2"/><linearGradient id="linear-gradient-147" x1="2828.23" y1="2434.93" x2="2838.73" y2="2595.08" xlink:href="#linear-gradient-2"/><linearGradient id="linear-gradient-148" x1="2863.91" y1="2415.66" x2="2875.56" y2="2593.37" xlink:href="#linear-gradient-2"/><linearGradient id="linear-gradient-149" x1="3577.28" y1="2645.83" x2="1918.66" y2="2176.48" xlink:href="#linear-gradient-5"/><linearGradient id="linear-gradient-150" x1="3572.93" y1="2661.2" x2="1914.31" y2="2191.84" xlink:href="#linear-gradient-5"/><linearGradient id="linear-gradient-151" x1="1875.19" y1="1597.68" x2="1901.13" y2="3692.15" gradientUnits="userSpaceOnUse"><stop offset="0" stop-color="#ffc444"/><stop offset="1" stop-color="#f36f56"/></linearGradient><linearGradient id="linear-gradient-152" x1="1970.56" y1="1633.25" x2="2128.29" y2="1539.12" gradientUnits="userSpaceOnUse"><stop offset="0" stop-color="#f36f56"/><stop offset="1" stop-color="#ffc444"/></linearGradient><linearGradient id="linear-gradient-153" x1="5201.35" y1="2768.19" x2="5219.47" y2="2998.88" gradientTransform="translate(-2691.46)" gradientUnits="userSpaceOnUse"><stop offset="0" stop-color="#311944"/><stop offset="1" stop-color="#a03976"/></linearGradient><linearGradient id="linear-gradient-154" x1="5248.14" y1="2896.62" x2="5244.85" y2="2657.69" gradientTransform="translate(-2691.46)" xlink:href="#linear-gradient-151"/><linearGradient id="linear-gradient-155" x1="5543.89" y1="2741.27" x2="5562.02" y2="2971.97" xlink:href="#linear-gradient-153"/><linearGradient id="linear-gradient-156" x1="5562.07" y1="2892.29" x2="5558.77" y2="2653.35" gradientTransform="translate(-2691.46)" xlink:href="#linear-gradient-151"/><linearGradient id="linear-gradient-157" x1="5191.12" y1="2509.55" x2="5367.78" y2="2509.55" gradientTransform="translate(-2691.46)" gradientUnits="userSpaceOnUse"><stop offset="0" stop-color="#444b8c"/><stop offset="1" stop-color="#3e4177"/></linearGradient><linearGradient id="linear-gradient-158" x1="5191.12" y1="2509.56" x2="5367.78" y2="2509.56" xlink:href="#linear-gradient-157"/><linearGradient id="linear-gradient-159" x1="5240.16" y1="2492.14" x2="5595.8" y2="2492.14" xlink:href="#linear-gradient-157"/><linearGradient id="linear-gradient-160" x1="-1570.97" y1="6383.74" x2="-1718.52" y2="6102.2" gradientTransform="matrix(-1, 0, 0, 1, -1479.54, 0)" xlink:href="#linear-gradient-152"/><linearGradient id="linear-gradient-161" x1="-3995.52" y1="1668.65" x2="-4004.42" y2="1561.79" gradientTransform="matrix(-1, 0, 0, 1, -1479.54, 0)" gradientUnits="userSpaceOnUse"><stop offset="0" stop-color="#26264f"/><stop offset="1" stop-color="#444b8c"/></linearGradient><linearGradient id="linear-gradient-162" x1="-1528.61" y1="6361.53" x2="-1676.16" y2="6079.99" gradientTransform="matrix(-1, 0, 0, 1, -1479.54, 0)" xlink:href="#linear-gradient-152"/><linearGradient id="linear-gradient-163" x1="-3878.72" y1="2433.19" x2="-3953.68" y2="1712.2" gradientTransform="matrix(-1, 0, 0, 1, -1479.54, 0)" gradientUnits="userSpaceOnUse"><stop offset="0" stop-color="#6165d7"/><stop offset="1" stop-color="#aa80f9"/></linearGradient><linearGradient id="linear-gradient-164" x1="-4108.14" y1="2458.91" x2="-4183.83" y2="1730.91" gradientTransform="matrix(-1, 0, 0, 1, -1479.54, 0)" xlink:href="#linear-gradient"/><linearGradient id="linear-gradient-165" x1="465.5" y1="2929.07" x2="508.76" y2="2929.07" gradientTransform="translate(52.88 -106.77) rotate(-9.66)" xlink:href="#linear-gradient-152"/><linearGradient id="linear-gradient-166" x1="549.1" y1="2750.83" x2="435.67" y2="3148.82" gradientTransform="translate(52.88 -106.77) rotate(-9.66)" xlink:href="#linear-gradient-5"/><linearGradient id="linear-gradient-167" x1="1139.54" y1="2329.24" x2="772.73" y2="2630.55" gradientUnits="userSpaceOnUse"><stop offset="0" stop-color="#ab316d"/><stop offset="1" stop-color="#792d3d"/></linearGradient><linearGradient id="linear-gradient-168" x1="935.31" y1="2309.12" x2="834.92" y2="2661.31" gradientTransform="translate(-10.49 79.32) rotate(5.38)" xlink:href="#linear-gradient-5"/><linearGradient id="linear-gradient-169" x1="780.52" y1="2713.97" x2="831.56" y2="2713.97" gradientTransform="translate(-10.49 79.32) rotate(5.38)" xlink:href="#linear-gradient-152"/><linearGradient id="linear-gradient-170" x1="785.29" y1="2866" x2="364.22" y2="2639.12" gradientTransform="translate(52.88 -106.77) rotate(-9.66)" xlink:href="#linear-gradient-167"/><linearGradient id="linear-gradient-171" x1="-29.33" y1="2640.29" x2="-435.88" y2="3062.48" gradientTransform="translate(75.96 -199.9) rotate(-17.41)" xlink:href="#linear-gradient-167"/><linearGradient id="linear-gradient-172" x1="-59.91" y1="2628.41" x2="-458.01" y2="3041.83" gradientTransform="translate(75.96 -199.9) rotate(-17.41)" xlink:href="#linear-gradient-167"/><linearGradient id="linear-gradient-173" x1="-1616.75" y1="1502.29" x2="-1610.48" y2="1593.51" gradientTransform="matrix(-1, 0, 0, 1, -567.99, 0)" xlink:href="#linear-gradient-152"/><linearGradient id="linear-gradient-174" x1="-1510.96" y1="1795.6" x2="-1519.9" y2="1688.25" gradientTransform="matrix(-1, 0.05, 0.05, 1, -736.22, -49.56)" xlink:href="#linear-gradient-5"/><linearGradient id="linear-gradient-175" x1="901.01" y1="1611.28" x2="891.96" y2="2173.22" xlink:href="#linear-gradient-151"/><linearGradient id="linear-gradient-176" x1="892.72" y1="1611.15" x2="883.68" y2="2173.08" xlink:href="#linear-gradient-151"/><linearGradient id="linear-gradient-177" x1="-1871.05" y1="1587.36" x2="-1853.38" y2="1643.8" gradientTransform="matrix(-1, 0, 0, 1, -567.99, 0)" xlink:href="#linear-gradient-152"/><linearGradient id="linear-gradient-178" x1="632.83" y1="1276.32" x2="1304.44" y2="964.26" xlink:href="#linear-gradient-5"/><linearGradient id="linear-gradient-179" x1="687.17" y1="1393.28" x2="1358.78" y2="1081.22" xlink:href="#linear-gradient-5"/><linearGradient id="linear-gradient-180" x1="1576.61" y1="459.99" x2="236.94" y2="2838.15" xlink:href="#linear-gradient-2"/></defs><g class="cls-4"><g id="Layer_2" data-name="Layer 2"><g id="Illustration"><g id="Big_data_tools" data-name="Big data tools"><path class="cls-5" d="M3021.55,1495.17c45.43,235.34,137.5,712.33-82.83,1031.41-399.88,579.12-1759.81,538.31-2334.24-191.83-49.66-63.13-298.79-392.4-271.61-843.29C380,709.39,1231.06,16.2,1913.1,152.35c399.17,79.68,664.47,428.26,773.69,571.76C2731.81,783.26,2938,1062.07,3021.55,1495.17Z"/><g class="cls-6"><path class="cls-7" d="M2296.13,2289c-196.81-10.19-373.32-41.11-524.62-91.87C1547.61,2122,1385.59,2005,1290,1849.58c-74.8-121.6-108.88-268.59-152-454.69-35.76-154.27-47.18-266.75-57.25-366-13.07-128.7-23.39-230.36-81.76-363.41-59.29-135.16-150.13-259.3-270-369l4.58-5c120.55,110.32,211.94,235.23,271.61,371.26,58.8,134,69.17,236.15,82.29,365.44,10.06,99,21.46,211.29,57.12,365.14,44.67,192.74,77,332,151.17,452.66,94.79,154.08,255.59,270,477.93,344.63,150.73,50.58,326.63,81.37,522.82,91.54Z"/><path class="cls-7" d="M1116.82,1284.3l-2.16-3.16C946.07,1035.2,745.77,911.83,607.42,851.65c-149.79-65.16-261-72.29-262.09-72.35l.39-6.78c1.12.07,113.52,7.28,264.41,72.91C748.69,905.7,949,1028.94,1118,1274.08c15.26-14.34,89.29-87.31,148.39-206.82,38.69-78.21,63.52-160.78,73.8-245.4,12.85-105.78,2.88-215.11-29.63-325l6.51-1.93c32.79,110.82,42.83,221.13,29.83,327.89-10.4,85.41-35.48,168.74-74.55,247.67-66.53,134.38-151.84,210.48-152.69,211.23Z"/><path class="cls-7" d="M1214.06,1697.78c-78.29,0-173.77-31.6-284-94-90.69-51.35-191.56-123.59-299.82-214.72-184.23-155.07-328-313.29-329.4-314.87l5-4.55c1.42,1.58,144.9,159.5,328.79,314.28C801.83,1524.59,1037,1691,1214.1,1691c1.59,0,3.14,0,4.72,0,6.58-21.59,57.85-185.82,139.56-341.43C1446,1182.73,1730.1,1043.39,1733,1042l3,6.11c-2.84,1.38-285,139.75-371.54,304.57-86.91,165.52-139.26,340.82-139.78,342.57l-.7,2.37-2.46.06Q1217.78,1697.79,1214.06,1697.78Z"/><path class="cls-7" d="M1373.49,2200.71q-20.28,0-41.37-.4c-200.2-3.92-495.28-39.17-764.1-184.85L48.79,1734.06l3.23-6,519.23,281.39c267.62,145,561.55,180.13,761,184,191,3.74,334-19.61,365.78-25.31-66.39-62-107.24-135.81-121.45-219.42-11.62-68.47-5.49-143.58,18.24-223.25,40.31-135.38,118.67-238.55,119.46-239.58l5.38,4.13c-.78,1-78.46,103.34-118.39,237.57-23.4,78.64-29.45,152.69-18,220.09,14.31,84.12,56.13,158.16,124.31,220.05l5,4.51-6.59,1.33C1704.54,2173.92,1568.5,2200.71,1373.49,2200.71Z"/></g><g class="cls-8"><path class="cls-7" d="M1882.81,2206.27c-169.67,0-348.41-39.43-534.59-118.17-329.84-139.52-600.46-367.57-769.39-534.31-117.6-116.06-208.59-271.89-270.44-463.15l6.45-2.09c61.52,190.22,151.94,345.12,268.75,460.41,168.52,166.33,438.42,393.79,767.28,532.89,315.73,133.54,609.84,153.48,874.18,59.27,198.4-70.71,373.5-200.39,520.44-385.43l5.32,4.22c-147.75,186-323.87,316.46-523.48,387.6Q2062.42,2206.29,1882.81,2206.27Z"/><path class="cls-7" d="M946.1,1858.81l-3.37-.12c-533-18.54-727.89-332.52-774.94-428.31-.85-1.74-1.66-3.39-1.89-3.75l5.69-3.69c.41.62,1,1.74,2.29,4.45,46.53,94.73,239,404.78,765.66,424.4.34-18.51.57-110.9-24.63-227C889,1505.6,830.18,1336.25,697,1206.66l4.73-4.86c134.43,130.82,193.74,301.58,219.83,421.79,28.24,130.17,24.69,230.84,24.65,231.85Z"/><path class="cls-7" d="M841.28,2322.57c-119.27,0-195.42-40-196.2-40.41l3.19-6c.8.43,81.19,42.58,206.27,39.44,115.18-2.89,292.87-45.91,485.84-234.15-4.93-25.3-65.47-317.09-283.08-612.94L827.59,1156.22l5.47-4,229.71,312.31C1290.32,1773.88,1346.85,2079,1347.39,2082l.32,1.77-1.28,1.25c-86.16,84.31-176.59,147.15-268.79,186.79-73.85,31.75-149,48.76-223.34,50.57Q847.71,2322.57,841.28,2322.57Z"/></g><g class="cls-9"><path class="cls-2" d="M2156.78,2251.45c-131-62-313.12-172.66-443-370.15-170.31-259-101.1-439.86-269.07-917.11-106.2-301.76-183.36-511.29-373.38-575.48-148.92-50.3-349.31-5.34-440.92,115.2-76.17,100.22-86,264.41-69.88,374.14,13.18,89.43,44.37,147.41,9.83,207.87-35.29,61.79-97.6,53.29-133.46,102.18-72.73,99.16,55.34,308.84,76,342.73,230.26,377,695.6,531.43,899.4,596.36C1580.87,2180.88,1834.79,2243,2156.78,2251.45Z"/><g class="cls-10"><path class="cls-11" d="M2296.13,2289c-196.81-10.19-373.32-41.11-524.62-91.87C1547.61,2122,1385.59,2005,1290,1849.58c-74.8-121.6-108.88-268.59-152-454.69-35.76-154.27-47.18-266.75-57.25-366-13.07-128.7-23.39-230.36-81.76-363.41-59.29-135.16-150.13-259.3-270-369l4.58-5c120.55,110.32,211.94,235.23,271.61,371.26,58.8,134,69.17,236.15,82.29,365.44,10.06,99,21.46,211.29,57.12,365.14,44.67,192.74,77,332,151.17,452.66,94.79,154.08,255.59,270,477.93,344.63,150.73,50.58,326.63,81.37,522.82,91.54Z"/><path class="cls-11" d="M1116.82,1284.3l-2.16-3.16C946.07,1035.2,745.77,911.83,607.42,851.65c-149.79-65.16-261-72.29-262.09-72.35l.39-6.78c1.12.07,113.52,7.28,264.41,72.91C748.69,905.7,949,1028.94,1118,1274.08c15.26-14.34,89.29-87.31,148.39-206.82,38.69-78.21,63.52-160.78,73.8-245.4,12.85-105.78,2.88-215.11-29.63-325l6.51-1.93c32.79,110.82,42.83,221.13,29.83,327.89-10.4,85.41-35.48,168.74-74.55,247.67-66.53,134.38-151.84,210.48-152.69,211.23Z"/><path class="cls-11" d="M1214.06,1697.78c-78.29,0-173.77-31.6-284-94-90.69-51.35-191.56-123.59-299.82-214.72-184.23-155.07-328-313.29-329.4-314.87l5-4.55c1.42,1.58,144.9,159.5,328.79,314.28C801.83,1524.59,1037,1691,1214.1,1691c1.59,0,3.14,0,4.72,0,6.58-21.59,57.85-185.82,139.56-341.43C1446,1182.73,1730.1,1043.39,1733,1042l3,6.11c-2.84,1.38-285,139.75-371.54,304.57-86.91,165.52-139.26,340.82-139.78,342.57l-.7,2.37-2.46.06Q1217.78,1697.79,1214.06,1697.78Z"/><path class="cls-11" d="M1373.49,2200.71q-20.28,0-41.37-.4c-200.2-3.92-495.28-39.17-764.1-184.85L48.79,1734.06l3.23-6,519.23,281.39c267.62,145,561.55,180.13,761,184,191,3.74,334-19.61,365.78-25.31-66.39-62-107.24-135.81-121.45-219.42-11.62-68.47-5.49-143.58,18.24-223.25,40.31-135.38,118.67-238.55,119.46-239.58l5.38,4.13c-.78,1-78.46,103.34-118.39,237.57-23.4,78.64-29.45,152.69-18,220.09,14.31,84.12,56.13,158.16,124.31,220.05l5,4.51-6.59,1.33C1704.54,2173.92,1568.5,2200.71,1373.49,2200.71Z"/></g></g><g class="cls-12"><path class="cls-3" d="M1997.63,2204.21c-166.35,118.49-396.12,241.8-668.75,277.46-69.58,9.1-499.38,65.33-570.09-131.82-24.91-69.45,15.77-111.69-16.09-205-37.76-110.59-119-122.07-229.75-215.29-66.06-55.62-259.38-218.4-226-407,20-112.67,120-229.45,227.65-268.85C672.55,1196,816,1315.94,1056,1523.25c212.7,183.76,231.74,252.12,386.77,381.74C1557.81,2001.19,1735,2120.47,1997.63,2204.21Z"/><g class="cls-13"><path class="cls-11" d="M1882.81,2206.27c-169.67,0-348.41-39.43-534.59-118.17-329.84-139.52-600.46-367.57-769.39-534.31-117.6-116.06-208.59-271.89-270.44-463.15l6.45-2.09c61.52,190.22,151.94,345.12,268.75,460.41,168.52,166.33,438.42,393.79,767.28,532.89,315.73,133.54,609.84,153.48,874.18,59.27,198.4-70.71,373.5-200.39,520.44-385.43l5.32,4.22c-147.75,186-323.87,316.46-523.48,387.6Q2062.42,2206.29,1882.81,2206.27Z"/><path class="cls-11" d="M946.1,1858.81l-3.37-.12c-533-18.54-727.89-332.52-774.94-428.31-.85-1.74-1.66-3.39-1.89-3.75l5.69-3.69c.41.62,1,1.74,2.29,4.45,46.53,94.73,239,404.78,765.66,424.4.34-18.51.57-110.9-24.63-227C889,1505.6,830.18,1336.25,697,1206.66l4.73-4.86c134.43,130.82,193.74,301.58,219.83,421.79,28.24,130.17,24.69,230.84,24.65,231.85Z"/><path class="cls-11" d="M841.28,2322.57c-119.27,0-195.42-40-196.2-40.41l3.19-6c.8.43,81.19,42.58,206.27,39.44,115.18-2.89,292.87-45.91,485.84-234.15-4.93-25.3-65.47-317.09-283.08-612.94L827.59,1156.22l5.47-4,229.71,312.31C1290.32,1773.88,1346.85,2079,1347.39,2082l.32,1.77-1.28,1.25c-86.16,84.31-176.59,147.15-268.79,186.79-73.85,31.75-149,48.76-223.34,50.57Q847.71,2322.57,841.28,2322.57Z"/></g></g><path class="cls-14" d="M1258.5,353.72V2706.34a51.54,51.54,0,0,0,41.33,50.51l604.27,122.06,164.49-1557.73L1909.18,223.3l-605.84,79.33A51.53,51.53,0,0,0,1258.5,353.72Z"/><path class="cls-15" d="M2977.62,265.62,1913.55,223c-42-1.68-76,28.13-76,66.58V2813.5c0,38.45,34.1,67.67,76,65.27l1064.07-60.94c38.62-2.22,69.84-33.8,69.84-70.55V335C3047.46,298.21,3016.24,267.16,2977.62,265.62Z"/><path class="cls-11" d="M1910.9,518V339.39c0-27.33,24.18-48.57,53.94-47.45l965.23,36.28c27.63,1,50,23.17,50,49.42V549.25c0,26.25-22.36,46.93-50,46.17L1964.84,569C1935.08,568.14,1910.9,545.32,1910.9,518Z"/><path class="cls-15" d="M2011.45,359.36c0,12.6-11.12,22.43-24.85,22s-24.9-11.09-24.9-23.71,11.15-22.45,24.9-21.95S2011.45,346.76,2011.45,359.36Z"/><path class="cls-15" d="M2089.93,362.12c0,12.57-11,22.37-24.7,21.9s-24.75-11-24.75-23.64,11.09-22.38,24.75-21.89S2089.93,349.56,2089.93,362.12Z"/><path class="cls-15" d="M2168,364.87c0,12.52-11,22.3-24.56,21.84s-24.61-11-24.61-23.57,11-22.33,24.61-21.84S2168,352.34,2168,364.87Z"/><polygon class="cls-16" points="2925.46 552.28 2216.97 531.69 2216.97 343.95 2925.46 369.47 2925.46 552.28"/><g class="cls-9"><polygon class="cls-11" points="2285.97 520.48 2264.59 519.85 2264.59 368.27 2285.97 369.02 2285.97 520.48"/><polygon class="cls-11" points="2323.89 521.6 2302.57 520.97 2302.57 369.6 2323.89 370.35 2323.89 521.6"/><polygon class="cls-11" points="2361.7 522.72 2340.45 522.09 2340.45 370.94 2361.7 371.68 2361.7 522.72"/><polygon class="cls-11" points="2399.41 523.83 2378.21 523.2 2378.21 372.26 2399.41 373.01 2399.41 523.83"/><polygon class="cls-11" points="2437.01 524.94 2415.88 524.32 2415.88 373.59 2437.01 374.33 2437.01 524.94"/><polygon class="cls-11" points="2474.51 526.05 2453.43 525.43 2453.43 374.91 2474.51 375.65 2474.51 526.05"/><polygon class="cls-11" points="2511.9 527.15 2490.88 526.53 2490.88 376.23 2511.9 376.97 2511.9 527.15"/><polygon class="cls-11" points="2549.19 528.26 2528.23 527.64 2528.23 377.54 2549.19 378.28 2549.19 528.26"/><polygon class="cls-11" points="2586.37 529.36 2565.47 528.74 2565.47 378.85 2586.37 379.59 2586.37 529.36"/><polygon class="cls-11" points="2623.45 530.45 2602.61 529.83 2602.61 380.16 2623.45 380.89 2623.45 530.45"/><polygon class="cls-11" points="2660.43 531.54 2639.64 530.93 2639.64 381.46 2660.43 382.19 2660.43 531.54"/><polygon class="cls-11" points="2697.3 532.63 2676.57 532.02 2676.57 382.76 2697.3 383.49 2697.3 532.63"/><polygon class="cls-11" points="2734.07 533.72 2713.4 533.11 2713.4 384.05 2734.07 384.78 2734.07 533.72"/><polygon class="cls-11" points="2770.74 534.8 2750.13 534.19 2750.13 385.35 2770.74 386.07 2770.74 534.8"/><polygon class="cls-11" points="2807.31 535.88 2786.75 535.28 2786.75 386.63 2807.31 387.36 2807.31 535.88"/><polygon class="cls-11" points="2843.78 536.96 2823.28 536.36 2823.28 387.92 2843.78 388.64 2843.78 536.96"/><polygon class="cls-11" points="2880.14 538.03 2859.7 537.43 2859.7 389.2 2880.14 389.92 2880.14 538.03"/></g><g class="cls-17"><polygon class="cls-18" points="2285.97 520.48 2264.59 519.85 2264.59 390.87 2285.97 391.6 2285.97 520.48"/><polygon class="cls-19" points="2323.89 521.6 2302.57 520.97 2302.57 505.46 2323.89 506.11 2323.89 521.6"/><polygon class="cls-20" points="2361.7 522.72 2340.45 522.09 2340.45 434.05 2361.7 434.75 2361.7 522.72"/><polygon class="cls-21" points="2399.41 523.83 2378.21 523.2 2378.21 485.24 2399.41 485.89 2399.41 523.83"/><polygon class="cls-22" points="2437.01 524.94 2415.88 524.32 2415.88 427.21 2437.01 427.91 2437.01 524.94"/><polygon class="cls-23" points="2474.51 526.05 2453.43 525.43 2453.43 458.56 2474.51 459.23 2474.51 526.05"/><polygon class="cls-24" points="2511.9 527.15 2490.88 526.53 2490.88 410.57 2511.9 411.28 2511.9 527.15"/><polygon class="cls-25" points="2549.19 528.26 2528.23 527.64 2528.23 399.92 2549.19 400.64 2549.19 528.26"/><polygon class="cls-26" points="2586.37 529.36 2565.47 528.74 2565.47 464.97 2586.37 465.63 2586.37 529.36"/><polygon class="cls-27" points="2623.45 530.45 2602.61 529.83 2602.61 390.41 2623.45 391.13 2623.45 530.45"/><polygon class="cls-28" points="2660.43 531.54 2639.64 530.93 2639.64 412.35 2660.43 413.06 2660.43 531.54"/><polygon class="cls-29" points="2697.3 532.63 2676.57 532.02 2676.57 500.27 2697.3 500.9 2697.3 532.63"/><polygon class="cls-30" points="2734.07 533.72 2713.4 533.11 2713.4 458.58 2734.07 459.25 2734.07 533.72"/><polygon class="cls-31" points="2770.74 534.8 2750.13 534.19 2750.13 426.93 2770.74 427.62 2770.74 534.8"/><polygon class="cls-32" points="2807.31 535.88 2786.75 535.28 2786.75 457.16 2807.31 457.83 2807.31 535.88"/><polygon class="cls-33" points="2843.78 536.96 2823.28 536.36 2823.28 415.36 2843.78 416.06 2843.78 536.96"/><polygon class="cls-34" points="2880.14 538.03 2859.7 537.43 2859.7 403.12 2880.14 403.83 2880.14 538.03"/></g><path class="cls-11" d="M1910.9,819.54V641c0-27.33,24.18-48.85,53.94-48.05l965.23,25.61c27.63.74,50,22.62,50,48.87V839c0,26.25-22.36,47.17-50,46.72l-965.23-15.8C1935.08,869.42,1910.9,846.87,1910.9,819.54Z"/><path class="cls-15" d="M2011.45,659.81c0,12.59-11.12,22.55-24.85,22.23s-24.9-10.81-24.9-23.43,11.15-22.58,24.9-22.24S2011.45,647.21,2011.45,659.81Z"/><path class="cls-15" d="M2089.93,661.7c0,12.56-11,22.49-24.7,22.17s-24.75-10.78-24.75-23.36,11.09-22.51,24.75-22.17S2089.93,649.14,2089.93,661.7Z"/><path class="cls-15" d="M2168,663.58c0,12.53-11,22.43-24.56,22.11S2118.8,675,2118.8,662.4s11-22.45,24.61-22.11S2168,651.06,2168,663.58Z"/><polygon class="cls-35" points="2925.46 842.62 2216.97 829.86 2216.97 642.13 2925.46 659.81 2925.46 842.62"/><g class="cls-9"><polygon class="cls-11" points="2285.97 817.89 2264.59 817.49 2264.59 665.91 2285.97 666.43 2285.97 817.89"/><polygon class="cls-11" points="2323.89 818.59 2302.57 818.2 2302.57 666.83 2323.89 667.35 2323.89 818.59"/><polygon class="cls-11" points="2361.7 819.29 2340.45 818.9 2340.45 667.74 2361.7 668.26 2361.7 819.29"/><polygon class="cls-11" points="2399.41 819.99 2378.21 819.6 2378.21 668.65 2399.41 669.17 2399.41 819.99"/><polygon class="cls-11" points="2437.01 820.68 2415.88 820.29 2415.88 669.56 2437.01 670.07 2437.01 820.68"/><polygon class="cls-11" points="2474.51 821.38 2453.43 820.99 2453.43 670.47 2474.51 670.98 2474.51 821.38"/><polygon class="cls-11" points="2511.9 822.07 2490.88 821.68 2490.88 671.37 2511.9 671.88 2511.9 822.07"/><polygon class="cls-11" points="2549.19 822.76 2528.23 822.37 2528.23 672.27 2549.19 672.78 2549.19 822.76"/><polygon class="cls-11" points="2586.37 823.45 2565.47 823.06 2565.47 673.17 2586.37 673.68 2586.37 823.45"/><polygon class="cls-11" points="2623.45 824.13 2602.61 823.75 2602.61 674.07 2623.45 674.57 2623.45 824.13"/><polygon class="cls-11" points="2660.43 824.82 2639.64 824.43 2639.64 674.96 2660.43 675.46 2660.43 824.82"/><polygon class="cls-11" points="2697.3 825.5 2676.57 825.11 2676.57 675.85 2697.3 676.35 2697.3 825.5"/><polygon class="cls-11" points="2734.07 826.18 2713.4 825.79 2713.4 676.74 2734.07 677.24 2734.07 826.18"/><polygon class="cls-11" points="2770.74 826.86 2750.13 826.48 2750.13 677.63 2770.74 678.13 2770.74 826.86"/><polygon class="cls-11" points="2807.31 827.53 2786.75 827.15 2786.75 678.51 2807.31 679.01 2807.31 827.53"/><polygon class="cls-11" points="2843.78 828.21 2823.28 827.83 2823.28 679.39 2843.78 679.89 2843.78 828.21"/><polygon class="cls-11" points="2880.14 828.88 2859.7 828.5 2859.7 680.27 2880.14 680.76 2880.14 828.88"/></g><g class="cls-17"><polygon class="cls-36" points="2285.97 817.89 2264.59 817.49 2264.59 688.51 2285.97 689.01 2285.97 817.89"/><polygon class="cls-37" points="2323.89 818.59 2302.57 818.2 2302.57 802.69 2323.89 803.1 2323.89 818.59"/><polygon class="cls-38" points="2361.7 819.29 2340.45 818.9 2340.45 730.86 2361.7 731.32 2361.7 819.29"/><polygon class="cls-39" points="2399.41 819.99 2378.21 819.6 2378.21 781.63 2399.41 782.05 2399.41 819.99"/><polygon class="cls-40" points="2437.01 820.68 2415.88 820.29 2415.88 723.18 2437.01 723.65 2437.01 820.68"/><polygon class="cls-41" points="2474.51 821.38 2453.43 820.99 2453.43 754.12 2474.51 754.56 2474.51 821.38"/><polygon class="cls-42" points="2511.9 822.07 2490.88 821.68 2490.88 705.71 2511.9 706.19 2511.9 822.07"/><polygon class="cls-43" points="2549.19 822.76 2528.23 822.37 2528.23 694.65 2549.19 695.14 2549.19 822.76"/><polygon class="cls-44" points="2586.37 823.45 2565.47 823.06 2565.47 759.29 2586.37 759.73 2586.37 823.45"/><polygon class="cls-45" points="2623.45 824.13 2602.61 823.75 2602.61 684.32 2623.45 684.81 2623.45 824.13"/><polygon class="cls-46" points="2660.43 824.82 2639.64 824.43 2639.64 705.85 2660.43 706.33 2660.43 824.82"/><polygon class="cls-47" points="2697.3 825.5 2676.57 825.11 2676.57 793.36 2697.3 793.77 2697.3 825.5"/><polygon class="cls-48" points="2734.07 826.18 2713.4 825.79 2713.4 751.27 2734.07 751.71 2734.07 826.18"/><polygon class="cls-49" points="2770.74 826.86 2750.13 826.48 2750.13 719.21 2770.74 719.68 2770.74 826.86"/><polygon class="cls-50" points="2807.31 827.53 2786.75 827.15 2786.75 749.04 2807.31 749.48 2807.31 827.53"/><polygon class="cls-51" points="2843.78 828.21 2823.28 827.83 2823.28 706.83 2843.78 707.3 2843.78 828.21"/><polygon class="cls-52" points="2880.14 828.88 2859.7 828.5 2859.7 694.19 2880.14 694.68 2880.14 828.88"/></g><path class="cls-11" d="M1910.9,1121.1V942.5c0-27.33,24.18-49.11,53.94-48.65l965.23,15c27.63.42,50,22.06,50,48.32v171.6c0,26.25-22.36,47.42-50,47.27l-965.23-5.13C1935.08,1170.71,1910.9,1148.43,1910.9,1121.1Z"/><path class="cls-15" d="M2011.45,960.25c0,12.6-11.12,22.67-24.85,22.51s-24.9-10.54-24.9-23.16,11.15-22.7,24.9-22.51S2011.45,947.65,2011.45,960.25Z"/><path class="cls-15" d="M2089.93,961.28c0,12.56-11,22.61-24.7,22.44s-24.75-10.51-24.75-23.09,11.09-22.63,24.75-22.44S2089.93,948.71,2089.93,961.28Z"/><path class="cls-15" d="M2168,962.3c0,12.52-11,22.54-24.56,22.38s-24.61-10.48-24.61-23,11-22.56,24.61-22.38S2168,949.77,2168,962.3Z"/><polygon class="cls-53" points="2925.46 1132.97 2216.97 1128.04 2216.97 940.3 2925.46 950.16 2925.46 1132.97"/><g class="cls-9"><polygon class="cls-11" points="2285.97 1115.3 2264.59 1115.14 2264.59 963.56 2285.97 963.84 2285.97 1115.3"/><polygon class="cls-11" points="2323.89 1115.58 2302.57 1115.42 2302.57 964.06 2323.89 964.34 2323.89 1115.58"/><polygon class="cls-11" points="2361.7 1115.86 2340.45 1115.7 2340.45 964.55 2361.7 964.83 2361.7 1115.86"/><polygon class="cls-11" points="2399.41 1116.14 2378.21 1115.98 2378.21 965.05 2399.41 965.32 2399.41 1116.14"/><polygon class="cls-11" points="2437.01 1116.42 2415.88 1116.27 2415.88 965.54 2437.01 965.82 2437.01 1116.42"/><polygon class="cls-11" points="2474.51 1116.7 2453.43 1116.55 2453.43 966.03 2474.51 966.3 2474.51 1116.7"/><polygon class="cls-11" points="2511.9 1116.98 2490.88 1116.82 2490.88 966.52 2511.9 966.79 2511.9 1116.98"/><polygon class="cls-11" points="2549.19 1117.26 2528.23 1117.1 2528.23 967.01 2549.19 967.28 2549.19 1117.26"/><polygon class="cls-11" points="2586.37 1117.54 2565.47 1117.38 2565.47 967.49 2586.37 967.77 2586.37 1117.54"/><polygon class="cls-11" points="2623.45 1117.81 2602.61 1117.66 2602.61 967.98 2623.45 968.25 2623.45 1117.81"/><polygon class="cls-11" points="2660.43 1118.09 2639.64 1117.93 2639.64 968.46 2660.43 968.74 2660.43 1118.09"/><polygon class="cls-11" points="2697.3 1118.36 2676.57 1118.21 2676.57 968.95 2697.3 969.22 2697.3 1118.36"/><polygon class="cls-11" points="2734.07 1118.64 2713.4 1118.48 2713.4 969.43 2734.07 969.7 2734.07 1118.64"/><polygon class="cls-11" points="2770.74 1118.91 2750.13 1118.76 2750.13 969.91 2770.74 970.18 2770.74 1118.91"/><polygon class="cls-11" points="2807.31 1119.18 2786.75 1119.03 2786.75 970.39 2807.31 970.66 2807.31 1119.18"/><polygon class="cls-11" points="2843.78 1119.45 2823.28 1119.3 2823.28 970.87 2843.78 971.13 2843.78 1119.45"/><polygon class="cls-11" points="2880.14 1119.72 2859.7 1119.57 2859.7 971.34 2880.14 971.61 2880.14 1119.72"/></g><g class="cls-17"><polygon class="cls-54" points="2285.97 1115.3 2264.59 1115.14 2264.59 986.16 2285.97 986.42 2285.97 1115.3"/><polygon class="cls-55" points="2323.89 1115.58 2302.57 1115.42 2302.57 1099.92 2323.89 1100.09 2323.89 1115.58"/><polygon class="cls-56" points="2361.7 1115.86 2340.45 1115.7 2340.45 1027.67 2361.7 1027.89 2361.7 1115.86"/><polygon class="cls-57" points="2399.41 1116.14 2378.21 1115.98 2378.21 1078.02 2399.41 1078.21 2399.41 1116.14"/><polygon class="cls-58" points="2437.01 1116.42 2415.88 1116.27 2415.88 1019.16 2437.01 1019.39 2437.01 1116.42"/><polygon class="cls-59" points="2474.51 1116.7 2453.43 1116.55 2453.43 1049.68 2474.51 1049.89 2474.51 1116.7"/><polygon class="cls-60" points="2511.9 1116.98 2490.88 1116.82 2490.88 1000.86 2511.9 1001.11 2511.9 1116.98"/><polygon class="cls-61" points="2549.19 1117.26 2528.23 1117.1 2528.23 989.38 2549.19 989.64 2549.19 1117.26"/><polygon class="cls-62" points="2586.37 1117.54 2565.47 1117.38 2565.47 1053.61 2586.37 1053.82 2586.37 1117.54"/><polygon class="cls-63" points="2623.45 1117.81 2602.61 1117.66 2602.61 978.23 2623.45 978.49 2623.45 1117.81"/><polygon class="cls-64" points="2660.43 1118.09 2639.64 1117.93 2639.64 999.35 2660.43 999.6 2660.43 1118.09"/><polygon class="cls-65" points="2697.3 1118.36 2676.57 1118.21 2676.57 1086.46 2697.3 1086.64 2697.3 1118.36"/><polygon class="cls-66" points="2734.07 1118.64 2713.4 1118.48 2713.4 1043.95 2734.07 1044.17 2734.07 1118.64"/><polygon class="cls-67" points="2770.74 1118.91 2750.13 1118.76 2750.13 1011.49 2770.74 1011.73 2770.74 1118.91"/><polygon class="cls-68" points="2807.31 1119.18 2786.75 1119.03 2786.75 1040.91 2807.31 1041.13 2807.31 1119.18"/><polygon class="cls-69" points="2843.78 1119.45 2823.28 1119.3 2823.28 998.3 2843.78 998.55 2843.78 1119.45"/><polygon class="cls-70" points="2880.14 1119.72 2859.7 1119.57 2859.7 985.26 2880.14 985.52 2880.14 1119.72"/></g><path class="cls-11" d="M1910.9,1422.65v-178.6c0-27.32,24.18-49.37,53.94-49.24l965.23,4.29c27.63.12,50,21.51,50,47.77v171.6c0,26.26-22.36,47.67-50,47.83l-965.23,5.53C1935.08,1472,1910.9,1450,1910.9,1422.65Z"/><path class="cls-15" d="M2011.45,1260.69c0,12.6-11.12,22.8-24.85,22.78s-24.9-10.26-24.9-22.88,11.15-22.82,24.9-22.78S2011.45,1248.09,2011.45,1260.69Z"/><path class="cls-15" d="M2089.93,1260.85c0,12.56-11,22.73-24.7,22.72s-24.75-10.23-24.75-22.82,11.09-22.75,24.75-22.71S2089.93,1248.29,2089.93,1260.85Z"/><path class="cls-15" d="M2168,1261c0,12.53-11,22.67-24.56,22.65s-24.61-10.2-24.61-22.75,11-22.69,24.61-22.65S2168,1248.48,2168,1261Z"/><polygon class="cls-71" points="2925.46 1423.31 2216.97 1426.21 2216.97 1238.47 2925.46 1240.5 2925.46 1423.31"/><g class="cls-9"><polygon class="cls-11" points="2285.97 1412.71 2264.59 1412.78 2264.59 1261.21 2285.97 1261.25 2285.97 1412.71"/><polygon class="cls-11" points="2323.89 1412.57 2302.57 1412.65 2302.57 1261.28 2323.89 1261.33 2323.89 1412.57"/><polygon class="cls-11" points="2361.7 1412.43 2340.45 1412.51 2340.45 1261.36 2361.7 1261.4 2361.7 1412.43"/><polygon class="cls-11" points="2399.41 1412.3 2378.21 1412.38 2378.21 1261.44 2399.41 1261.48 2399.41 1412.3"/><polygon class="cls-11" points="2437.01 1412.16 2415.88 1412.24 2415.88 1261.51 2437.01 1261.56 2437.01 1412.16"/><polygon class="cls-11" points="2474.51 1412.03 2453.43 1412.11 2453.43 1261.59 2474.51 1261.63 2474.51 1412.03"/><polygon class="cls-11" points="2511.9 1411.89 2490.88 1411.97 2490.88 1261.66 2511.9 1261.71 2511.9 1411.89"/><polygon class="cls-11" points="2549.19 1411.76 2528.23 1411.84 2528.23 1261.74 2549.19 1261.78 2549.19 1411.76"/><polygon class="cls-11" points="2586.37 1411.63 2565.47 1411.7 2565.47 1261.82 2586.37 1261.86 2586.37 1411.63"/><polygon class="cls-11" points="2623.45 1411.49 2602.61 1411.57 2602.61 1261.89 2623.45 1261.93 2623.45 1411.49"/><polygon class="cls-11" points="2660.43 1411.36 2639.64 1411.43 2639.64 1261.97 2660.43 1262.01 2660.43 1411.36"/><polygon class="cls-11" points="2697.3 1411.23 2676.57 1411.3 2676.57 1262.04 2697.3 1262.08 2697.3 1411.23"/><polygon class="cls-11" points="2734.07 1411.1 2713.4 1411.17 2713.4 1262.12 2734.07 1262.16 2734.07 1411.1"/><polygon class="cls-11" points="2770.74 1410.96 2750.13 1411.04 2750.13 1262.19 2770.74 1262.23 2770.74 1410.96"/><polygon class="cls-11" points="2807.31 1410.83 2786.75 1410.9 2786.75 1262.27 2807.31 1262.31 2807.31 1410.83"/><polygon class="cls-11" points="2843.78 1410.7 2823.28 1410.77 2823.28 1262.34 2843.78 1262.38 2843.78 1410.7"/><polygon class="cls-11" points="2880.14 1410.57 2859.7 1410.64 2859.7 1262.41 2880.14 1262.45 2880.14 1410.57"/></g><g class="cls-17"><polygon class="cls-72" points="2285.97 1412.71 2264.59 1412.78 2264.59 1283.81 2285.97 1283.83 2285.97 1412.71"/><polygon class="cls-73" points="2323.89 1412.57 2302.57 1412.65 2302.57 1397.14 2323.89 1397.08 2323.89 1412.57"/><polygon class="cls-74" points="2361.7 1412.43 2340.45 1412.51 2340.45 1324.47 2361.7 1324.47 2361.7 1412.43"/><polygon class="cls-75" points="2399.41 1412.3 2378.21 1412.38 2378.21 1374.41 2399.41 1374.36 2399.41 1412.3"/><polygon class="cls-76" points="2437.01 1412.16 2415.88 1412.24 2415.88 1315.13 2437.01 1315.13 2437.01 1412.16"/><polygon class="cls-77" points="2474.51 1412.03 2453.43 1412.11 2453.43 1345.24 2474.51 1345.21 2474.51 1412.03"/><polygon class="cls-78" points="2511.9 1411.89 2490.88 1411.97 2490.88 1296.01 2511.9 1296.02 2511.9 1411.89"/><polygon class="cls-79" points="2549.19 1411.76 2528.23 1411.84 2528.23 1284.12 2549.19 1284.14 2549.19 1411.76"/><polygon class="cls-80" points="2586.37 1411.63 2565.47 1411.7 2565.47 1347.93 2586.37 1347.91 2586.37 1411.63"/><polygon class="cls-81" points="2623.45 1411.49 2602.61 1411.57 2602.61 1272.14 2623.45 1272.17 2623.45 1411.49"/><polygon class="cls-82" points="2660.43 1411.36 2639.64 1411.43 2639.64 1292.85 2660.43 1292.87 2660.43 1411.36"/><polygon class="cls-83" points="2697.3 1411.23 2676.57 1411.3 2676.57 1379.55 2697.3 1379.5 2697.3 1411.23"/><polygon class="cls-84" points="2734.07 1411.1 2713.4 1411.17 2713.4 1336.64 2734.07 1336.63 2734.07 1411.1"/><polygon class="cls-85" points="2770.74 1410.96 2750.13 1411.04 2750.13 1303.78 2770.74 1303.78 2770.74 1410.96"/><polygon class="cls-86" points="2807.31 1410.83 2786.75 1410.9 2786.75 1332.79 2807.31 1332.78 2807.31 1410.83"/><polygon class="cls-87" points="2843.78 1410.7 2823.28 1410.77 2823.28 1289.77 2843.78 1289.8 2843.78 1410.7"/><polygon class="cls-88" points="2880.14 1410.57 2859.7 1410.64 2859.7 1276.34 2880.14 1276.37 2880.14 1410.57"/></g><path class="cls-11" d="M1910.9,1724.21v-178.6c0-27.33,24.18-49.64,53.94-49.84l965.23-6.38c27.63-.18,50,21,50,47.22v171.6c0,26.26-22.36,47.92-50,48.38l-965.23,16.19C1935.08,1773.28,1910.9,1751.53,1910.9,1724.21Z"/><path class="cls-15" d="M2011.45,1561.14c0,12.59-11.12,22.92-24.85,23s-24.9-10-24.9-22.61,11.15-22.94,24.9-23S2011.45,1548.54,2011.45,1561.14Z"/><path class="cls-15" d="M2089.93,1560.43c0,12.56-11,22.85-24.7,23s-24.75-10-24.75-22.55,11.09-22.87,24.75-23S2089.93,1547.86,2089.93,1560.43Z"/><path class="cls-15" d="M2168,1559.72c0,12.53-11,22.79-24.56,22.93s-24.61-9.93-24.61-22.48,11-22.81,24.61-22.93S2168,1547.2,2168,1559.72Z"/><polygon class="cls-89" points="2925.46 1713.65 2216.97 1724.38 2216.97 1536.64 2925.46 1530.85 2925.46 1713.65"/><g class="cls-9"><polygon class="cls-11" points="2285.97 1710.12 2264.59 1710.43 2264.59 1558.85 2285.97 1558.66 2285.97 1710.12"/><polygon class="cls-11" points="2323.89 1709.56 2302.57 1709.87 2302.57 1558.51 2323.89 1558.32 2323.89 1709.56"/><polygon class="cls-11" points="2361.7 1709.01 2340.45 1709.32 2340.45 1558.17 2361.7 1557.97 2361.7 1709.01"/><polygon class="cls-11" points="2399.41 1708.46 2378.21 1708.77 2378.21 1557.83 2399.41 1557.63 2399.41 1708.46"/><polygon class="cls-11" points="2437.01 1707.9 2415.88 1708.21 2415.88 1557.49 2437.01 1557.3 2437.01 1707.9"/><polygon class="cls-11" points="2474.51 1707.36 2453.43 1707.66 2453.43 1557.15 2474.51 1556.96 2474.51 1707.36"/><polygon class="cls-11" points="2511.9 1706.81 2490.88 1707.12 2490.88 1556.81 2511.9 1556.62 2511.9 1706.81"/><polygon class="cls-11" points="2549.19 1706.26 2528.23 1706.57 2528.23 1556.47 2549.19 1556.28 2549.19 1706.26"/><polygon class="cls-11" points="2586.37 1705.72 2565.47 1706.02 2565.47 1556.14 2586.37 1555.95 2586.37 1705.72"/><polygon class="cls-11" points="2623.45 1705.17 2602.61 1705.48 2602.61 1555.8 2623.45 1555.61 2623.45 1705.17"/><polygon class="cls-11" points="2660.43 1704.63 2639.64 1704.94 2639.64 1555.47 2660.43 1555.28 2660.43 1704.63"/><polygon class="cls-11" points="2697.3 1704.09 2676.57 1704.4 2676.57 1555.13 2697.3 1554.95 2697.3 1704.09"/><polygon class="cls-11" points="2734.07 1703.55 2713.4 1703.86 2713.4 1554.8 2734.07 1554.62 2734.07 1703.55"/><polygon class="cls-11" points="2770.74 1703.02 2750.13 1703.32 2750.13 1554.47 2770.74 1554.29 2770.74 1703.02"/><polygon class="cls-11" points="2807.31 1702.48 2786.75 1702.78 2786.75 1554.14 2807.31 1553.96 2807.31 1702.48"/><polygon class="cls-11" points="2843.78 1701.95 2823.28 1702.25 2823.28 1553.81 2843.78 1553.63 2843.78 1701.95"/><polygon class="cls-11" points="2880.14 1701.41 2859.7 1701.71 2859.7 1553.48 2880.14 1553.3 2880.14 1701.41"/></g><g class="cls-17"><polygon class="cls-90" points="2285.97 1710.12 2264.59 1710.43 2264.59 1581.45 2285.97 1581.24 2285.97 1710.12"/><polygon class="cls-91" points="2323.89 1709.56 2302.57 1709.87 2302.57 1694.37 2323.89 1694.07 2323.89 1709.56"/><polygon class="cls-92" points="2361.7 1709.01 2340.45 1709.32 2340.45 1621.28 2361.7 1621.04 2361.7 1709.01"/><polygon class="cls-93" points="2399.41 1708.46 2378.21 1708.77 2378.21 1670.8 2399.41 1670.52 2399.41 1708.46"/><polygon class="cls-94" points="2437.01 1707.9 2415.88 1708.21 2415.88 1611.11 2437.01 1610.87 2437.01 1707.9"/><polygon class="cls-95" points="2474.51 1707.36 2453.43 1707.66 2453.43 1640.8 2474.51 1640.54 2474.51 1707.36"/><polygon class="cls-96" points="2511.9 1706.81 2490.88 1707.12 2490.88 1591.15 2511.9 1590.93 2511.9 1706.81"/><polygon class="cls-97" points="2549.19 1706.26 2528.23 1706.57 2528.23 1578.85 2549.19 1578.64 2549.19 1706.26"/><polygon class="cls-98" points="2586.37 1705.72 2565.47 1706.02 2565.47 1642.25 2586.37 1642 2586.37 1705.72"/><polygon class="cls-99" points="2623.45 1705.17 2602.61 1705.48 2602.61 1566.05 2623.45 1565.86 2623.45 1705.17"/><polygon class="cls-100" points="2660.43 1704.63 2639.64 1704.94 2639.64 1586.36 2660.43 1586.14 2660.43 1704.63"/><polygon class="cls-101" points="2697.3 1704.09 2676.57 1704.4 2676.57 1672.64 2697.3 1672.37 2697.3 1704.09"/><polygon class="cls-102" points="2734.07 1703.55 2713.4 1703.86 2713.4 1629.33 2734.07 1629.09 2734.07 1703.55"/><polygon class="cls-103" points="2770.74 1703.02 2750.13 1703.32 2750.13 1596.06 2770.74 1595.84 2770.74 1703.02"/><polygon class="cls-104" points="2807.31 1702.48 2786.75 1702.78 2786.75 1624.67 2807.31 1624.43 2807.31 1702.48"/><polygon class="cls-105" points="2843.78 1701.95 2823.28 1702.25 2823.28 1581.25 2843.78 1581.04 2843.78 1701.95"/><polygon class="cls-106" points="2880.14 1701.41 2859.7 1701.71 2859.7 1567.4 2880.14 1567.21 2880.14 1701.41"/></g><path class="cls-11" d="M1910.9,2025.76v-178.6c0-27.33,24.18-49.91,53.94-50.43l965.23-17c27.63-.49,50,20.4,50,46.66V1998c0,26.26-22.36,48.16-50,48.93l-965.23,26.86C1935.08,2074.57,1910.9,2053.09,1910.9,2025.76Z"/><path class="cls-15" d="M2011.45,1861.58c0,12.6-11.12,23-24.85,23.33s-24.9-9.71-24.9-22.33,11.15-23.07,24.9-23.34S2011.45,1849,2011.45,1861.58Z"/><path class="cls-15" d="M2089.93,1860c0,12.57-11,23-24.7,23.27s-24.75-9.69-24.75-22.27,11.09-23,24.75-23.27S2089.93,1847.44,2089.93,1860Z"/><path class="cls-15" d="M2168,1858.44c0,12.52-11,22.91-24.56,23.19s-24.61-9.66-24.61-22.21,11-22.93,24.61-23.19S2168,1845.91,2168,1858.44Z"/><polygon class="cls-107" points="2925.46 2004 2216.97 2022.55 2216.97 1834.82 2925.46 1821.19 2925.46 2004"/><g class="cls-9"><polygon class="cls-11" points="2285.97 2007.53 2264.59 2008.08 2264.59 1856.5 2285.97 1856.07 2285.97 2007.53"/><polygon class="cls-11" points="2323.89 2006.55 2302.57 2007.1 2302.57 1855.73 2323.89 1855.31 2323.89 2006.55"/><polygon class="cls-11" points="2361.7 2005.58 2340.45 2006.13 2340.45 1854.97 2361.7 1854.55 2361.7 2005.58"/><polygon class="cls-11" points="2399.41 2004.61 2378.21 2005.16 2378.21 1854.22 2399.41 1853.79 2399.41 2004.61"/><polygon class="cls-11" points="2437.01 2003.65 2415.88 2004.19 2415.88 1853.46 2437.01 1853.04 2437.01 2003.65"/><polygon class="cls-11" points="2474.51 2002.68 2453.43 2003.22 2453.43 1852.71 2474.51 1852.29 2474.51 2002.68"/><polygon class="cls-11" points="2511.9 2001.72 2490.88 2002.26 2490.88 1851.96 2511.9 1851.53 2511.9 2001.72"/><polygon class="cls-11" points="2549.19 2000.76 2528.23 2001.3 2528.23 1851.21 2549.19 1850.79 2549.19 2000.76"/><polygon class="cls-11" points="2586.37 1999.81 2565.47 2000.35 2565.47 1850.46 2586.37 1850.04 2586.37 1999.81"/><polygon class="cls-11" points="2623.45 1998.86 2602.61 1999.39 2602.61 1849.71 2623.45 1849.3 2623.45 1998.86"/><polygon class="cls-11" points="2660.43 1997.9 2639.64 1998.44 2639.64 1848.97 2660.43 1848.55 2660.43 1997.9"/><polygon class="cls-11" points="2697.3 1996.96 2676.57 1997.49 2676.57 1848.23 2697.3 1847.81 2697.3 1996.96"/><polygon class="cls-11" points="2734.07 1996.01 2713.4 1996.54 2713.4 1847.49 2734.07 1847.07 2734.07 1996.01"/><polygon class="cls-11" points="2770.74 1995.07 2750.13 1995.6 2750.13 1846.75 2770.74 1846.34 2770.74 1995.07"/><polygon class="cls-11" points="2807.31 1994.13 2786.75 1994.66 2786.75 1846.02 2807.31 1845.61 2807.31 1994.13"/><polygon class="cls-11" points="2843.78 1993.19 2823.28 1993.72 2823.28 1845.28 2843.78 1844.87 2843.78 1993.19"/><polygon class="cls-11" points="2880.14 1992.26 2859.7 1992.78 2859.7 1844.55 2880.14 1844.14 2880.14 1992.26"/></g><g class="cls-17"><polygon class="cls-108" points="2285.97 2007.53 2264.59 2008.08 2264.59 1879.1 2285.97 1878.65 2285.97 2007.53"/><polygon class="cls-109" points="2323.89 2006.55 2302.57 2007.1 2302.57 1991.6 2323.89 1991.06 2323.89 2006.55"/><polygon class="cls-110" points="2361.7 2005.58 2340.45 2006.13 2340.45 1918.09 2361.7 1917.61 2361.7 2005.58"/><polygon class="cls-111" points="2399.41 2004.61 2378.21 2005.16 2378.21 1967.19 2399.41 1966.68 2399.41 2004.61"/><polygon class="cls-112" points="2437.01 2003.65 2415.88 2004.19 2415.88 1907.08 2437.01 1906.62 2437.01 2003.65"/><polygon class="cls-113" points="2474.51 2002.68 2453.43 2003.22 2453.43 1936.36 2474.51 1935.87 2474.51 2002.68"/><polygon class="cls-114" points="2511.9 2001.72 2490.88 2002.26 2490.88 1886.3 2511.9 1885.85 2511.9 2001.72"/><polygon class="cls-115" points="2549.19 2000.76 2528.23 2001.3 2528.23 1873.58 2549.19 1873.15 2549.19 2000.76"/><polygon class="cls-116" points="2586.37 1999.81 2565.47 2000.35 2565.47 1936.58 2586.37 1936.09 2586.37 1999.81"/><polygon class="cls-117" points="2623.45 1998.86 2602.61 1999.39 2602.61 1859.96 2623.45 1859.54 2623.45 1998.86"/><polygon class="cls-118" points="2660.43 1997.9 2639.64 1998.44 2639.64 1879.86 2660.43 1879.42 2660.43 1997.9"/><polygon class="cls-119" points="2697.3 1996.96 2676.57 1997.49 2676.57 1965.74 2697.3 1965.23 2697.3 1996.96"/><polygon class="cls-120" points="2734.07 1996.01 2713.4 1996.54 2713.4 1922.02 2734.07 1921.54 2734.07 1996.01"/><polygon class="cls-121" points="2770.74 1995.07 2750.13 1995.6 2750.13 1888.34 2770.74 1887.89 2770.74 1995.07"/><polygon class="cls-122" points="2807.31 1994.13 2786.75 1994.66 2786.75 1916.54 2807.31 1916.08 2807.31 1994.13"/><polygon class="cls-123" points="2843.78 1993.19 2823.28 1993.72 2823.28 1872.72 2843.78 1872.29 2843.78 1993.19"/><polygon class="cls-124" points="2880.14 1992.26 2859.7 1992.78 2859.7 1858.48 2880.14 1858.06 2880.14 1992.26"/></g><path class="cls-11" d="M1910.9,2327.31V2148.72c0-27.33,24.18-50.18,53.94-51L2930.07,2070c27.63-.8,50,19.85,50,46.11v171.6c0,26.26-22.36,48.41-50,49.49l-965.23,37.52C1935.08,2375.86,1910.9,2354.64,1910.9,2327.31Z"/><path class="cls-15" d="M2011.45,2162c0,12.6-11.12,23.17-24.85,23.61s-24.9-9.44-24.9-22.06,11.15-23.19,24.9-23.61S2011.45,2149.42,2011.45,2162Z"/><path class="cls-15" d="M2089.93,2159.58c0,12.56-11,23.1-24.7,23.53s-24.75-9.41-24.75-22,11.09-23.12,24.75-23.54S2089.93,2147,2089.93,2159.58Z"/><path class="cls-15" d="M2168,2157.15c0,12.53-11,23-24.56,23.47s-24.61-9.39-24.61-21.94,11-23,24.61-23.47S2168,2144.62,2168,2157.15Z"/><polygon class="cls-125" points="2925.46 2294.34 2216.97 2320.72 2216.97 2132.99 2925.46 2111.53 2925.46 2294.34"/><g class="cls-9"><polygon class="cls-11" points="2285.97 2304.94 2264.59 2305.72 2264.59 2154.14 2285.97 2153.48 2285.97 2304.94"/><polygon class="cls-11" points="2323.89 2303.54 2302.57 2304.33 2302.57 2152.96 2323.89 2152.3 2323.89 2303.54"/><polygon class="cls-11" points="2361.7 2302.15 2340.45 2302.94 2340.45 2151.78 2361.7 2151.12 2361.7 2302.15"/><polygon class="cls-11" points="2399.41 2300.77 2378.21 2301.55 2378.21 2150.61 2399.41 2149.95 2399.41 2300.77"/><polygon class="cls-11" points="2437.01 2299.39 2415.88 2300.16 2415.88 2149.44 2437.01 2148.78 2437.01 2299.39"/><polygon class="cls-11" points="2474.51 2298.01 2453.43 2298.78 2453.43 2148.27 2474.51 2147.61 2474.51 2298.01"/><polygon class="cls-11" points="2511.9 2296.64 2490.88 2297.41 2490.88 2147.1 2511.9 2146.45 2511.9 2296.64"/><polygon class="cls-11" points="2549.19 2295.26 2528.23 2296.03 2528.23 2145.94 2549.19 2145.29 2549.19 2295.26"/><polygon class="cls-11" points="2586.37 2293.9 2565.47 2294.67 2565.47 2144.78 2586.37 2144.13 2586.37 2293.9"/><polygon class="cls-11" points="2623.45 2292.54 2602.61 2293.3 2602.61 2143.63 2623.45 2142.98 2623.45 2292.54"/><polygon class="cls-11" points="2660.43 2291.18 2639.64 2291.94 2639.64 2142.47 2660.43 2141.82 2660.43 2291.18"/><polygon class="cls-11" points="2697.3 2289.82 2676.57 2290.58 2676.57 2141.32 2697.3 2140.68 2697.3 2289.82"/><polygon class="cls-11" points="2734.07 2288.47 2713.4 2289.23 2713.4 2140.18 2734.07 2139.53 2734.07 2288.47"/><polygon class="cls-11" points="2770.74 2287.12 2750.13 2287.88 2750.13 2139.03 2770.74 2138.39 2770.74 2287.12"/><polygon class="cls-11" points="2807.31 2285.78 2786.75 2286.53 2786.75 2137.89 2807.31 2137.25 2807.31 2285.78"/><polygon class="cls-11" points="2843.78 2284.44 2823.28 2285.19 2823.28 2136.76 2843.78 2136.12 2843.78 2284.44"/><polygon class="cls-11" points="2880.14 2283.1 2859.7 2283.85 2859.7 2135.62 2880.14 2134.99 2880.14 2283.1"/></g><g class="cls-17"><polygon class="cls-126" points="2285.97 2304.94 2264.59 2305.72 2264.59 2176.74 2285.97 2176.06 2285.97 2304.94"/><polygon class="cls-127" points="2323.89 2303.54 2302.57 2304.33 2302.57 2288.82 2323.89 2288.05 2323.89 2303.54"/><polygon class="cls-128" points="2361.7 2302.15 2340.45 2302.94 2340.45 2214.9 2361.7 2214.19 2361.7 2302.15"/><polygon class="cls-129" points="2399.41 2300.77 2378.21 2301.55 2378.21 2263.58 2399.41 2262.83 2399.41 2300.77"/><polygon class="cls-130" points="2437.01 2299.39 2415.88 2300.16 2415.88 2203.06 2437.01 2202.36 2437.01 2299.39"/><polygon class="cls-131" points="2474.51 2298.01 2453.43 2298.78 2453.43 2231.92 2474.51 2231.19 2474.51 2298.01"/><polygon class="cls-132" points="2511.9 2296.64 2490.88 2297.41 2490.88 2181.44 2511.9 2180.76 2511.9 2296.64"/><polygon class="cls-133" points="2549.19 2295.26 2528.23 2296.03 2528.23 2168.32 2549.19 2167.65 2549.19 2295.26"/><polygon class="cls-134" points="2586.37 2293.9 2565.47 2294.67 2565.47 2230.9 2586.37 2230.18 2586.37 2293.9"/><polygon class="cls-135" points="2623.45 2292.54 2602.61 2293.3 2602.61 2153.87 2623.45 2153.22 2623.45 2292.54"/><polygon class="cls-136" points="2660.43 2291.18 2639.64 2291.94 2639.64 2173.36 2660.43 2172.69 2660.43 2291.18"/><polygon class="cls-137" points="2697.3 2289.82 2676.57 2290.58 2676.57 2258.83 2697.3 2258.09 2697.3 2289.82"/><polygon class="cls-138" points="2734.07 2288.47 2713.4 2289.23 2713.4 2214.7 2734.07 2214 2734.07 2288.47"/><polygon class="cls-139" points="2770.74 2287.12 2750.13 2287.88 2750.13 2180.62 2770.74 2179.95 2770.74 2287.12"/><polygon class="cls-140" points="2807.31 2285.78 2786.75 2286.53 2786.75 2208.42 2807.31 2207.72 2807.31 2285.78"/><polygon class="cls-141" points="2843.78 2284.44 2823.28 2285.19 2823.28 2164.19 2843.78 2163.53 2843.78 2284.44"/><polygon class="cls-142" points="2880.14 2283.1 2859.7 2283.85 2859.7 2149.55 2880.14 2148.9 2880.14 2283.1"/></g><path class="cls-11" d="M1910.9,2628.87v-178.6c0-27.33,24.18-50.44,53.94-51.63l965.23-38.37c27.63-1.1,50,19.3,50,45.56v171.6c0,26.26-22.36,48.66-50,50l-965.23,48.19C1935.08,2677.14,1910.9,2656.2,1910.9,2628.87Z"/><path class="cls-15" d="M2011.45,2462.46c0,12.6-11.12,23.29-24.85,23.89s-24.9-9.17-24.9-21.79,11.15-23.31,24.9-23.88S2011.45,2449.87,2011.45,2462.46Z"/><path class="cls-15" d="M2089.93,2459.16c0,12.56-11,23.22-24.7,23.8s-24.75-9.13-24.75-21.72,11.09-23.24,24.75-23.81S2089.93,2446.59,2089.93,2459.16Z"/><path class="cls-15" d="M2168,2455.86c0,12.53-11,23.16-24.56,23.74s-24.61-9.11-24.61-21.66,11-23.18,24.61-23.74S2168,2443.34,2168,2455.86Z"/><polygon class="cls-143" points="2925.46 2584.69 2216.97 2618.9 2216.97 2431.16 2925.46 2401.88 2925.46 2584.69"/><g class="cls-9"><polygon class="cls-11" points="2285.97 2602.35 2264.59 2603.37 2264.59 2451.79 2285.97 2450.89 2285.97 2602.35"/><polygon class="cls-11" points="2323.89 2600.53 2302.57 2601.55 2302.57 2450.19 2323.89 2449.29 2323.89 2600.53"/><polygon class="cls-11" points="2361.7 2598.73 2340.45 2599.74 2340.45 2448.59 2361.7 2447.7 2361.7 2598.73"/><polygon class="cls-11" points="2399.41 2596.93 2378.21 2597.94 2378.21 2447 2399.41 2446.11 2399.41 2596.93"/><polygon class="cls-11" points="2437.01 2595.13 2415.88 2596.14 2415.88 2445.41 2437.01 2444.52 2437.01 2595.13"/><polygon class="cls-11" points="2474.51 2593.34 2453.43 2594.34 2453.43 2443.83 2474.51 2442.94 2474.51 2593.34"/><polygon class="cls-11" points="2511.9 2591.55 2490.88 2592.55 2490.88 2442.25 2511.9 2441.36 2511.9 2591.55"/><polygon class="cls-11" points="2549.19 2589.77 2528.23 2590.77 2528.23 2440.67 2549.19 2439.79 2549.19 2589.77"/><polygon class="cls-11" points="2586.37 2587.99 2565.47 2588.99 2565.47 2439.1 2586.37 2438.22 2586.37 2587.99"/><polygon class="cls-11" points="2623.45 2586.22 2602.61 2587.21 2602.61 2437.54 2623.45 2436.66 2623.45 2586.22"/><polygon class="cls-11" points="2660.43 2584.45 2639.64 2585.44 2639.64 2435.97 2660.43 2435.1 2660.43 2584.45"/><polygon class="cls-11" points="2697.3 2582.69 2676.57 2583.68 2676.57 2434.42 2697.3 2433.54 2697.3 2582.69"/><polygon class="cls-11" points="2734.07 2580.93 2713.4 2581.92 2713.4 2432.86 2734.07 2431.99 2734.07 2580.93"/><polygon class="cls-11" points="2770.74 2579.18 2750.13 2580.16 2750.13 2431.32 2770.74 2430.45 2770.74 2579.18"/><polygon class="cls-11" points="2807.31 2577.43 2786.75 2578.41 2786.75 2429.77 2807.31 2428.9 2807.31 2577.43"/><polygon class="cls-11" points="2843.78 2575.69 2823.28 2576.66 2823.28 2428.23 2843.78 2427.37 2843.78 2575.69"/><polygon class="cls-11" points="2880.14 2573.95 2859.7 2574.93 2859.7 2426.69 2880.14 2425.83 2880.14 2573.95"/></g><g class="cls-17"><polygon class="cls-144" points="2285.97 2602.35 2264.59 2603.37 2264.59 2474.39 2285.97 2473.47 2285.97 2602.35"/><polygon class="cls-145" points="2323.89 2600.53 2302.57 2601.55 2302.57 2586.05 2323.89 2585.04 2323.89 2600.53"/><polygon class="cls-146" points="2361.7 2598.73 2340.45 2599.74 2340.45 2511.71 2361.7 2510.76 2361.7 2598.73"/><polygon class="cls-147" points="2399.41 2596.93 2378.21 2597.94 2378.21 2559.97 2399.41 2558.99 2399.41 2596.93"/><polygon class="cls-148" points="2437.01 2595.13 2415.88 2596.14 2415.88 2499.03 2437.01 2498.1 2437.01 2595.13"/><polygon class="cls-149" points="2474.51 2593.34 2453.43 2594.34 2453.43 2527.47 2474.51 2526.52 2474.51 2593.34"/><polygon class="cls-150" points="2511.9 2591.55 2490.88 2592.55 2490.88 2476.59 2511.9 2475.68 2511.9 2591.55"/><polygon class="cls-151" points="2549.19 2589.77 2528.23 2590.77 2528.23 2463.05 2549.19 2462.15 2549.19 2589.77"/><polygon class="cls-152" points="2586.37 2587.99 2565.47 2588.99 2565.47 2525.22 2586.37 2524.27 2586.37 2587.99"/><polygon class="cls-153" points="2623.45 2586.22 2602.61 2587.21 2602.61 2447.78 2623.45 2446.9 2623.45 2586.22"/><polygon class="cls-154" points="2660.43 2584.45 2639.64 2585.44 2639.64 2466.86 2660.43 2465.96 2660.43 2584.45"/><polygon class="cls-155" points="2697.3 2582.69 2676.57 2583.68 2676.57 2551.93 2697.3 2550.96 2697.3 2582.69"/><polygon class="cls-156" points="2734.07 2580.93 2713.4 2581.92 2713.4 2507.39 2734.07 2506.46 2734.07 2580.93"/><polygon class="cls-157" points="2770.74 2579.18 2750.13 2580.16 2750.13 2472.9 2770.74 2472 2770.74 2579.18"/><polygon class="cls-158" points="2807.31 2577.43 2786.75 2578.41 2786.75 2500.3 2807.31 2499.38 2807.31 2577.43"/><polygon class="cls-159" points="2843.78 2575.69 2823.28 2576.66 2823.28 2455.67 2843.78 2454.78 2843.78 2575.69"/><polygon class="cls-160" points="2880.14 2573.95 2859.7 2574.93 2859.7 2440.62 2880.14 2439.74 2880.14 2573.95"/></g><path class="cls-161" d="M2876.17,2473c-156.47-201.25-357.91-195.48-415.12-384.47-61.22-202.23,138.46-290.25,88.14-509.84C2498,1355.46,2252.6,1353.73,2217,1128c-28.92-183.19,124.44-235.92,74.34-400.27-51.26-168.18-235.26-191.33-271.59-356-11.28-51.11-4.75-100.11,10.11-144.14L1913.55,223c-42-1.68-76,28.13-76,66.58V2813.5c0,38.45,34.1,67.67,76,65.27l1064.07-60.94a75.31,75.31,0,0,0,30.13-8.3C2988.2,2652.17,2933.13,2546.22,2876.17,2473Z"/><path class="cls-162" d="M2295.25,2526.32c53.12,27,119.85,2.21,149.05-55.31s9.82-126-43.3-153c-2.75-1.4-5.56-2.57-8.38-3.7a673.43,673.43,0,0,0,22.3-96c3,0,6.1-.06,9.21-.34,60.6-5.4,108.7-61.09,107.43-124.39s-51.43-110.22-112-104.82c-3.17.28-6.28.78-9.37,1.33a618.07,618.07,0,0,0-25.95-91.66c2.79-1.63,5.56-3.32,8.27-5.22,51.85-36.32,68.43-108,37-160.13s-98.89-64.91-150.74-28.59c-2.65,1.87-5.15,3.88-7.62,5.92a547.78,547.78,0,0,0-67.24-62.77c1.7-2.8,3.38-5.64,4.89-8.62,29.2-57.51,67.36-120.34,13.83-146.47-123.84-60.46-177-8.71-206.19,48.81-1.51,3-2.81,6-4.07,9A545.9,545.9,0,0,0,1922,1533.2c.19-3.2.34-6.4.28-9.65-1.27-63.29,17.51-97.54-43.32-98.73-132.66-2.58-177.41,55-176.14,118.29.06,3.31.34,6.55.67,9.76a617.08,617.08,0,0,0-89.32,33.14c-1.38-2.82-2.81-5.63-4.45-8.35-31.4-52.12-98.89-64.91-150.74-28.59s-68.42,108-37,160.14c1.61,2.67,3.37,5.16,5.16,7.63a673.13,673.13,0,0,0-64.34,74.64c-2.57-1.61-5.17-3.19-7.92-4.58-53.12-27-119.86-2.21-149.06,55.31s-9.81,126,43.31,153c2.75,1.4,5.56,2.57,8.38,3.7a673.11,673.11,0,0,0-22.3,96c-3,0-6.1.06-9.21.34-60.6,5.4-108.7,61.09-107.43,124.38s51.43,110.23,112,104.83c3.16-.29,6.28-.78,9.37-1.33a617.21,617.21,0,0,0,26,91.66c-2.79,1.63-5.57,3.32-8.27,5.21-51.85,36.33-68.43,108-37,160.14s135.36,76.32,187.2,40c2.66-1.87-31.31-15.29-28.84-17.33a547.78,547.78,0,0,0,67.24,62.77c-1.71,2.8-3.38,5.64-4.89,8.62-29.2,57.51-9.82,126,43.3,153s119.85,2.21,149-55.31c1.52-3,2.82-6,4.07-9a547,547,0,0,0,90.36,17.25c-.19,3.2-.34,6.4-.28,9.65,1.27,63.29,51.43,110.22,112,104.82s108.7-61.09,107.43-124.39c-.06-3.3-.34-6.54-.67-9.75a617.75,617.75,0,0,0,89.31-33.15c1.39,2.83,2.82,5.63,4.46,8.36,31.4,52.11,98.89,64.91,150.74,28.58s68.42-108,37-160.13c-1.61-2.67-3.37-5.16-5.16-7.63a674,674,0,0,0,64.33-74.64C2289.89,2523.35,2292.5,2524.92,2295.25,2526.32Zm-662.16,8.4c-192.86-97.92-263.25-346.58-157.23-555.41S1824.18,1680.58,2017,1778.5s263.25,346.58,157.23,555.41S1826,2632.64,1633.09,2534.72Z"/><path class="cls-163" d="M2424.13,2218c60.6-5.4,108.7-61.09,107.43-124.39s-51.43-110.23-112-104.82c-3.17.28-6.28.78-9.37,1.33a617.73,617.73,0,0,0-25.95-91.66c2.79-1.63,5.56-3.32,8.27-5.22,51.85-36.32,116-124.09,79.42-172.71-69.43-92.27-141.28-52.33-193.13-16-2.65,1.87-5.15,3.87-7.62,5.91a548.48,548.48,0,0,0-67.24-62.76c1.7-2.8,3.38-5.64,4.89-8.62,15.89-31.3,17.3-65.81,6.8-95.15q-75.12,132.21-148,265.65c153.85,112.74,202.83,334.92,106.66,524.34-81.49,160.51-243.49,250.64-401.67,239.35-7,18.3-14,36.69-21.54,54.82-20.5,49.18-43.8,97.34-67.12,145.45q22,4.14,44.18,6.49c-.19,3.2-.34,6.4-.28,9.64,1.27,63.3,39.7,117.08,149.53,111.25,60.76-3.22,71.2-67.51,69.93-130.81-.06-3.3-.34-6.54-.67-9.75a617.75,617.75,0,0,0,89.31-33.15c1.39,2.83,2.82,5.63,4.46,8.36,31.4,52.11,140.33,74.25,192.18,37.93s27-117.36-4.42-169.48c-1.61-2.67-3.37-5.17-5.16-7.63a674,674,0,0,0,64.33-74.64c2.57,1.61,5.18,3.18,7.93,4.58,53.12,27,119.85,2.2,149.06-55.31s9.81-126-43.31-153c-2.75-1.4-5.56-2.57-8.38-3.7a673.43,673.43,0,0,0,22.3-96C2418,2218.35,2421,2218.3,2424.13,2218Z"/><path class="cls-164" d="M2352.38,2532.82c53.12,27,119.85,2.2,149.06-55.31s9.81-126-43.31-153c-2.75-1.39-5.56-2.57-8.38-3.69a673.56,673.56,0,0,0,22.3-96c3,0,6.1-.06,9.21-.33,60.6-5.41,108.7-61.09,107.43-124.39s-51.43-110.23-112-104.83c-3.17.29-6.28.79-9.37,1.34a617.73,617.73,0,0,0-25.95-91.66c2.79-1.64,5.56-3.32,8.27-5.22,51.85-36.32,68.43-108,37-160.13s-98.89-64.91-150.74-28.59c-2.65,1.86-5.15,3.87-7.62,5.91a546.93,546.93,0,0,0-67.24-62.76c1.71-2.8,3.38-5.64,4.89-8.62,29.2-57.52,9.82-126-43.3-153s-119.85-2.21-149.06,55.3c-1.51,3-2.81,6-4.07,9a547.77,547.77,0,0,0-90.35-17.25c.19-3.19.34-6.4.28-9.64-1.27-63.29-51.43-110.23-112-104.82s-108.7,61.09-107.43,124.38c.06,3.31.34,6.54.67,9.76a617.08,617.08,0,0,0-89.32,33.14c-1.38-2.82-2.81-5.63-4.45-8.36-31.4-52.11-98.89-64.91-150.74-28.58s-68.42,108-37,160.13c1.61,2.67,3.37,5.17,5.16,7.63a674.15,674.15,0,0,0-64.34,74.65c-2.56-1.61-5.17-3.19-7.92-4.59-53.12-27-119.85-2.2-149,55.31s-9.82,126,43.3,153c2.75,1.39,5.56,2.57,8.38,3.69a673.56,673.56,0,0,0-22.3,96c-3,0-6.1.06-9.21.33-60.6,5.41-108.7,61.09-107.43,124.39s51.43,110.22,112,104.82c3.17-.28,6.28-.78,9.37-1.33a617,617,0,0,0,26,91.67c-2.79,1.63-5.56,3.31-8.27,5.21-51.85,36.32-68.43,108-37,160.13s98.89,64.91,150.74,28.59c2.65-1.86,5.15-3.87,7.62-5.91a546.93,546.93,0,0,0,67.24,62.76c-1.7,2.81-3.38,5.64-4.89,8.62-29.2,57.52-9.82,126,43.3,153s119.85,2.2,149.06-55.31c1.51-3,2.81-6,4.07-9a548,548,0,0,0,90.35,17.25c-.19,3.19-.34,6.4-.28,9.64,1.27,63.29,51.43,110.23,112,104.83s108.7-61.1,107.43-124.39c-.06-3.31-.34-6.54-.67-9.76a617.08,617.08,0,0,0,89.32-33.14c1.38,2.82,2.81,5.63,4.45,8.35,31.4,52.12,98.89,64.92,150.74,28.59s68.42-108,37-160.13c-1.61-2.67-3.37-5.17-5.16-7.63a674.3,674.3,0,0,0,64.34-74.65C2347,2529.84,2349.63,2531.42,2352.38,2532.82Zm-662.16,8.4C1497.36,2443.3,1427,2194.64,1533,1985.81s348.32-298.74,541.18-200.82,263.25,346.59,157.23,555.41S1883.08,2639.14,1690.22,2541.22Z"/><path class="cls-165" d="M2107.56,1596s-11-1.53-7.58-22.56c2.69-16.49.66-22-3.23-19.11s-4.45,12.45-4.45,12.45-14.19-12.11-20-28-9.6-2.5-10.86,5.43,8.35,32.56,13.78,37.15,13.36,24.83,13.36,24.83Z"/><path class="cls-166" d="M2545.24,2883.24s-73,33.16-74.16,38.46,46.93-1.78,66.57-1,35.8-5,34-13.36-8.65-29.24-8.65-29.24Z"/><path class="cls-167" d="M2542.57,2856.33l4.44,32.85s11.55,4.11,19.31-.75l3.31-36Z"/><path class="cls-168" d="M2886.19,2857.11l8.49,13.63a16.26,16.26,0,0,1,1.94,12.74c-3,11.33-8.89,33.41-11.48,39.17-3.52,7.84-50.73,12.5-50.73,12.5s-4.21-5.93,5.59-13.08,16.1-8.29,19.56-18.85,5.77-40.43,5.77-40.43Z"/><path class="cls-169" d="M2850.87,2822.49c3.1,2.47,18.26,48.5,18.26,48.5s4.91,6.28,14.24-3,4.22-4.16,4.22-4.16l-1.75-45.27Z"/><path class="cls-170" d="M2502.43,2196.31c-3.85,98-4,204.47,1.63,318.21,6.35,128.08,19.1,246.46,35.18,353.77,6,.19,12.26.22,18.82,0q6.64-.2,12.87-.63a813,813,0,0,0,27-86.46A832.79,832.79,0,0,0,2616.85,2680c14.05-111-2.42-120.67,9-202.93,10.1-72.85,24.46-75.7,41.32-179.13,18.3-112.23,4.68-129.07-1.94-135.15C2637,2136.89,2570.79,2154.52,2502.43,2196.31Z"/><path class="cls-171" d="M2665.21,2162.78c-26.89-24.69-88.38-9.74-153.33,27.95,74.71,80.73,82.86,133.09,73.9,167.07-10.12,38.4-40.9,49.46-40.78,91.46.14,51.6,46.72,65.27,45.73,119.88-.66,36.1-21.12,35.73-26,80.33-5.72,52.77,21,71,12.36,110-3.72,16.8-14.36,38.75-44.64,61.35,2.18,16,4.42,31.91,6.75,47.48,6,.19,12.26.22,18.82,0q6.64-.2,12.87-.63a813,813,0,0,0,27-86.46A832.79,832.79,0,0,0,2616.85,2680c14.05-111-2.42-120.67,9-202.93,10.1-72.85,24.46-75.7,41.32-179.13C2685.45,2185.7,2671.83,2168.86,2665.21,2162.78Z"/><path class="cls-172" d="M2548.71,2194.67a2200.26,2200.26,0,0,1,301.66,645.66,39.35,39.35,0,0,0,21.54,3.33,40,40,0,0,0,24.39-13.18,633.9,633.9,0,0,0,5.6-156.25c-2.21-24.88-6.12-66.31-22-117.45-17.76-57.29-30-60.51-53.14-121.12-24.05-62.91-18.23-78.61-41.26-157.33a1038.71,1038.71,0,0,0-51.43-138Z"/><path class="cls-173" d="M2524.62,1662.36s2.1,27.56,11.31,48c8.32,18.44,49.41,28.92,57.79,32.83s-15,16.84-38.71,20-91.93-.16-104.48-8.81,9.6-8.66,26.41-15.43,25.61-40.32,22.14-55.32S2524.62,1662.36,2524.62,1662.36Z"/><path class="cls-174" d="M2490.34,1641.3c-12.51-16.6-7.18-49.19,4-53.38,3.19-1.19,5.35.49,37.17,26.54,15.81,12.94,23.49,19.6,23.91,28.51.26,5.43-2.1,11.93-5.71,16.5-1.86,2.35-4.88,5-11.28,10-5.69,4.4-5.36,4.29-7.08,5.55-4.11,3-11.75,7.9-24.34,12.37a65.35,65.35,0,0,0,.28-11.25,57.62,57.62,0,0,0-2.74-14.33C2500.84,1651.36,2494.4,1646.69,2490.34,1641.3Z"/><path class="cls-175" d="M2522.37,1684s-15.5,12.41-34.38,4.13c-16.91-7.41-5.35-47.17,8.7-51.39,4.69-1.41,12.5.13,17.9,4,3.19,2.29,3.85,4.2,9.13,7.83,4.87,3.34,6.61,3.3,7.74,5.26,1.41,2.44,1.37,7.17-6.14,17.3,4.52-2.15,8.95-2,11.28.35a6.31,6.31,0,0,1,1.49,3.08C2538.9,1679.82,2532.8,1684,2522.37,1684Z"/><path class="cls-176" d="M2810.42,2229.27c-26.84,24.31-73.33,26.28-83.48,26.71-47.78,2-54.6-18.71-101.86-16.7s-59.9,23.68-93.5,15c-6-1.53-29.21-8.29-53.93-40.59-70.05-91.54-11.5-192.26-81.32-321.74-10.53-19.52-19.78-36.69-38.4-55.1-60.26-59.59-117.72-32.49-193.66-80.31-62.29-39.23-104.11-118.09-86-153.64,8.19-16.12,15.29-14,26.29-15.28,18.49,31.35,64.26,69.6,116.9,91.86,49.95,21.13,88.44,11,164.87,12.1,46.71.66,126.9,1.78,190.49,24.54,159,56.93,217.89,250.5,235.29,307.74C2827.31,2073.92,2860.63,2183.8,2810.42,2229.27Z"/><path class="cls-177" d="M2680.18,2185.3c17.34-22.37-72.11-84-60.11-155.85,10.11-60.51,81.85-66.56,100.19-122.44,7.92-24.14,6.43-59.3-27.29-111.62,74,80.21,106.86,188.17,119.12,228.5,15.22,50,48.54,159.91-1.67,205.38-26.84,24.31-73.33,26.28-83.48,26.71-47.78,2-54.6-18.71-101.86-16.7s-59.9,23.68-93.5,15c-6-1.53-29.21-8.29-53.93-40.59-.37-.48-.68-1-1-1.45,18.65-17.79,41-32.13,67.77-38.1C2610.2,2159.45,2666.14,2203.41,2680.18,2185.3Z"/><path class="cls-178" d="M1010,2673.36l-3.15,50.27s7.14,7.56,20.87,2.3l15-49.36Z"/><path class="cls-179" d="M1016.29,2710.32s-24.62,10-19.84,20.94c2.56,5.84,11.44,19,19.12,30a28.75,28.75,0,0,0,31.8,11.09c4-1.19,8.07-2.36,11.67-3.29a7.8,7.8,0,0,0,.63-14.92,58.38,58.38,0,0,0-10.05-2.71c-9-1.39-21.42-22.69-22.87-31.22S1016.29,2710.32,1016.29,2710.32Z"/><path class="cls-180" d="M957.11,2190.89c36.26,12.51,170.36,63.2,200.23,179.47,1.6,6.21,5.69,23.47,5.87,51.66.77,117.35-67.47,216.67-117.1,274.45l-46.94-.78c-7.81-30-15-74.75-3.76-125.16,17.17-77,61.7-97,53.11-134.84-15.59-68.66-175-58.27-190.07-119.76C853,2293.72,865,2256,957.11,2190.89Z"/><path class="cls-181" d="M508.59,2893.47l68.09-1.59a4.53,4.53,0,0,0,2.78-8,17.22,17.22,0,0,0-13.14-4.25c-12.94,1.34-42-16.77-55.18-12.88-4.3,1.27-7.8,11.4-9.59,14.2A8.15,8.15,0,0,0,508.59,2893.47Z"/><path class="cls-182" d="M539.18,2841.16l-28,25.56a31.23,31.23,0,0,0,24.07,4.18l28.66-19.73Z"/><g class="cls-183"><path class="cls-184" d="M1077.41,2493.67c18.8-50.77,41.36-113.38,15.6-148.93-26.07-36-83.17-5.61-140.46-34.59-21.25-10.75-43.09-30-61.26-64.82-32.16,33.2-36.53,55.49-32.84,70.6,15,61.49,174.48,51.1,190.07,119.76,8.59,37.82-35.94,57.8-53.11,134.84-9.65,43.33-5.69,82.5.57,111.67a386.83,386.83,0,0,1,27.5-84.27C1044,2553.41,1057.59,2547.16,1077.41,2493.67Z"/></g><path class="cls-185" d="M977.89,2176.23C955.81,2277.56,908.78,2432.29,801,2593.8a1216.47,1216.47,0,0,1-236.14,261.68,57.1,57.1,0,0,1-41.11-3.16A390.66,390.66,0,0,1,562.18,2736c43.34-83.4,81.92-80.72,125.45-154.34,31.87-53.9,42.23-111.16,63-225.68,16-88.43,16-109.56,37.93-134.92C832.82,2169.77,916,2169.19,977.89,2176.23Z"/><g class="cls-186"><path class="cls-187" d="M578.79,2754.83c15.47-24.4,42.91-49.82,97-100,55.94-51.82,53.79-42.45,64.8-57.76,49.3-68.56,22.6-141.81,34.79-230.22,6.8-49.33,28.58-113.78,92-186-29.72,5.48-58.17,17.27-78.89,40.12-25.43,28.06-23.56,55.54-37.93,134.92-20.72,114.52-31.08,171.78-63,225.68-43.53,73.62-82.11,70.94-125.45,154.34a390.66,390.66,0,0,0-38.4,116.35,56.77,56.77,0,0,0,33.42,4.88C553.63,2799.25,571,2767.22,578.79,2754.83Z"/></g><path class="cls-11" d="M1037.48,1517.74s18.13,135-124.13,230.19L1064.73,1784s48.45-90.59,13.37-240.65Z"/><path class="cls-188" d="M1064.12,1543.39s8.15-20.14,6.84-29.21-22.9-21.16-37.61-33.65.55,12.56,4,18.26,15.43,14.25,13.7,33.64Z"/><path class="cls-189" d="M894.74,1646.17c7.43-14.64,10.5-14.56,12.33-22.29,4.16-17.61-6.59-40-15.7-40.29-5.87-.2-6.35,8.93-18.79,23.16-15.23,17.43-24.47,15.15-33.43,30.28-2.1,3.54-11.53,19.47-5.73,31.36,7.4,15.18,36.6,17.58,48.8,5.87C888,1668.71,885.58,1664.21,894.74,1646.17Z"/><path class="cls-190" d="M872.85,1662s5.22,27.83,1.51,50.45c-3.36,20.45-41.24,41.69-48.5,47.78s19.26,12.7,43.58,9.52,90.93-24.49,101-36.37-11.78-6-30.21-8.28-36-33.12-36.54-48.88S872.85,1662,872.85,1662Z"/><path class="cls-191" d="M880.78,1682.74s18.63,8.17,35.12-5c14.77-11.81-7.19-48.08-22.21-48.55-5-.15-12.33,3.44-16.65,8.69-2.55,3.1-2.7,5.17-7,10.16-3.93,4.6-5.66,5-6.26,7.25-.75,2.79.54,7.47,10.65,15.49-5-.92-9.39.4-11.07,3.34a6.49,6.49,0,0,0-.66,3.45C863.34,1683,870.49,1685.55,880.78,1682.74Z"/><path class="cls-192" d="M1290,1585.94s11.28-1.57,7.77-23.11c-2.76-16.88-.67-22.56,3.31-19.56s4.55,12.75,4.55,12.75,14.54-12.4,20.52-28.65,9.84-2.57,11.12,5.56-8.55,33.35-14.11,38-13.68,25.43-13.68,25.43Z"/><path class="cls-11" d="M1320.08,1591.72l-38.48-27c-15.61,96-51.1,133.62-81.23,150.09-72.71,39.74-137.59-31.08-276.76-2.18-38.34,8-105.19,22.8-142.25,77.43-9.74,14.36-13.21,25.24-29.39,128.25-20.68,131.68-21.41,154.66-18.5,183,5.34,51.89,8.57,83.33,32.5,111.16,63.53,73.91,198.56,35.8,215.49,30.79,31.27-9.27,79.88-23.67,99.19-65,9.09-19.45,8.12-37.22-5.84-108.33-27.67-140.86-31.2-150-23.48-165.4,26.06-52.06,108.63-22.27,178.38-70.68C1270.5,1805.62,1316.47,1743.94,1320.08,1591.72Z"/><path class="cls-193" d="M918.18,2224.5c13.61-27.92-4.68-53.65,15.39-87.22,25.58-42.77,71.61-28.25,88.93-59.86,29.62-54.05-87-129.43-63.28-215.49,11.31-41.08,50.81-70.82,83.8-82.09,73.26-25,121.17,38.75,189.84,18.81,16.28-4.72,35-14.51,53.85-34.83-16.7,35.24-37.44,56.52-57,70.1-69.75,48.41-152.32,18.62-178.38,70.68-7.72,15.42-4.19,24.54,23.48,165.4,14,71.11,14.93,88.88,5.84,108.33-19.31,41.32-67.92,55.72-99.19,65-9.27,2.74-53.93,15.37-102.87,14.14C900.42,2248.59,912.17,2236.82,918.18,2224.5Z"/><path class="cls-194" d="M1581.43,1280.07c40.14,20.38,90.58,1.66,112.65-41.8s7.41-95.23-32.73-115.61c-2.08-1.06-4.2-1.94-6.33-2.79a508.6,508.6,0,0,0,16.85-72.54c2.3,0,4.61,0,7-.26,45.8-4.08,82.14-46.16,81.19-94s-38.87-83.3-84.67-79.22c-2.39.22-4.74.59-7.08,1a466.09,466.09,0,0,0-19.61-69.27c2.11-1.24,4.2-2.51,6.25-3.94,39.18-27.46,51.71-81.64,28-121S1608.16,631.57,1569,659c-2,1.41-3.9,2.93-5.77,4.47a413.45,413.45,0,0,0-50.81-47.43c1.29-2.12,2.55-4.26,3.7-6.51,22.07-43.47,50.9-90.95,10.45-110.7-93.59-45.69-133.75-6.58-155.82,36.89-1.15,2.25-2.13,4.54-3.08,6.83a413.57,413.57,0,0,0-68.28-13c.14-2.41.25-4.83.21-7.29-1-47.83,13.23-73.72-32.74-74.61-100.25-1.95-134.07,41.56-133.12,89.4,0,2.5.26,4.94.51,7.37a466.72,466.72,0,0,0-67.5,25.05c-1-2.14-2.12-4.26-3.36-6.32-23.73-39.38-74.73-49-113.92-21.6s-51.71,81.63-28,121c1.22,2,2.55,3.9,3.9,5.76a509.75,509.75,0,0,0-48.62,56.42c-1.94-1.22-3.91-2.41-6-3.47-40.14-20.38-90.58-1.67-112.64,41.8s-7.42,95.23,32.72,115.61c2.08,1.05,4.2,1.94,6.33,2.79A510,510,0,0,0,780.32,954c-2.3,0-4.61,0-7,.25-45.81,4.09-82.15,46.17-81.19,94s38.86,83.3,84.66,79.21c2.39-.21,4.74-.59,7.08-1a467.64,467.64,0,0,0,19.61,69.27c-2.11,1.23-4.2,2.51-6.25,3.94-39.18,27.45-51.71,81.64-28,121s102.29,57.68,141.47,30.23c2-1.41-23.66-11.55-21.79-13.09a413.45,413.45,0,0,0,50.81,47.43c-1.29,2.12-2.55,4.26-3.69,6.51-22.07,43.47-7.42,95.23,32.72,115.61s90.58,1.67,112.64-41.8c1.15-2.25,2.13-4.54,3.08-6.83a413.76,413.76,0,0,0,68.28,13c-.14,2.41-.25,4.83-.2,7.29,1,47.83,38.86,83.3,84.66,79.21s82.15-46.17,81.19-94c0-2.5-.26-4.94-.51-7.37a466.29,466.29,0,0,0,67.5-25c1,2.14,2.12,4.26,3.36,6.31,23.74,39.39,74.74,49.06,113.92,21.61s51.71-81.64,28-121c-1.21-2-2.55-3.9-3.9-5.77a508.72,508.72,0,0,0,48.62-56.41C1577.38,1277.82,1579.35,1279,1581.43,1280.07ZM1081,1286.42c-145.75-74-198.94-261.93-118.82-419.74s263.24-225.77,409-151.77,199,261.93,118.82,419.74S1226.76,1360.42,1081,1286.42Z"/><path class="cls-195" d="M1678.83,1047.07c45.8-4.08,82.14-46.16,81.19-94s-38.87-83.3-84.67-79.22c-2.39.22-4.74.59-7.08,1a466.09,466.09,0,0,0-19.61-69.27c2.11-1.23,4.2-2.51,6.25-4,39.18-27.45,87.66-93.78,60-130.52-52.47-69.73-106.77-39.55-146-12.1-2,1.41-3.9,2.93-5.76,4.47a414.27,414.27,0,0,0-50.82-47.43c1.29-2.12,2.55-4.26,3.7-6.51,12-23.66,13.07-49.74,5.14-71.92q-56.77,99.93-111.85,200.76c116.27,85.21,153.29,253.11,80.61,396.26-61.59,121.31-184,189.42-303.56,180.89-5.33,13.83-10.57,27.73-16.28,41.43-15.49,37.16-33.1,73.57-50.72,109.92q16.62,3.13,33.38,4.9c-.14,2.42-.25,4.84-.2,7.29,1,47.84,30,88.48,113,84.08,45.92-2.44,53.81-51,52.85-98.86,0-2.5-.26-4.94-.51-7.37a466.29,466.29,0,0,0,67.5-25c1,2.14,2.12,4.25,3.37,6.31,23.73,39.39,106.05,56.12,145.23,28.67s20.39-88.7-3.34-128.08c-1.21-2-2.55-3.9-3.9-5.77a507.67,507.67,0,0,0,48.62-56.41c1.94,1.22,3.91,2.41,6,3.47,40.14,20.38,90.58,1.66,112.65-41.8s7.41-95.23-32.73-115.61c-2.08-1.06-4.2-1.94-6.33-2.79a508.6,508.6,0,0,0,16.85-72.54C1674.17,1047.32,1676.48,1047.28,1678.83,1047.07Z"/><path class="cls-196" d="M1624.61,1285c40.14,20.38,90.57,1.66,112.64-41.8s7.42-95.23-32.73-115.61c-2.07-1-4.2-1.94-6.33-2.79a508.64,508.64,0,0,0,16.86-72.54c2.3,0,4.61,0,7-.26,45.8-4.08,82.15-46.16,81.19-94s-38.86-83.3-84.66-79.22c-2.39.22-4.75.59-7.08,1a467.3,467.3,0,0,0-19.61-69.27c2.1-1.24,4.2-2.51,6.25-3.94,39.18-27.46,51.71-81.64,28-121s-74.73-49.06-113.92-21.61c-2,1.41-3.89,2.93-5.76,4.47A413.54,413.54,0,0,0,1555.57,621c1.3-2.12,2.56-4.26,3.7-6.52,22.07-43.46,7.42-95.22-32.72-115.6s-90.58-1.67-112.65,41.8c-1.14,2.25-2.13,4.54-3.07,6.83a413.76,413.76,0,0,0-68.28-13c.14-2.41.25-4.84.2-7.29-1-47.83-38.86-83.3-84.66-79.21s-82.15,46.16-81.19,94c0,2.5.26,4.94.51,7.37a466.29,466.29,0,0,0-67.5,25.05c-1-2.14-2.13-4.26-3.37-6.32-23.73-39.38-74.73-49-113.91-21.6s-51.71,81.63-28,121c1.21,2,2.54,3.9,3.9,5.76a507.64,507.64,0,0,0-48.62,56.42c-1.95-1.22-3.91-2.41-6-3.47-40.15-20.38-90.58-1.67-112.65,41.8S793.88,863.2,834,883.58c2.08,1,4.2,1.94,6.33,2.79a508.6,508.6,0,0,0-16.85,72.54c-2.3,0-4.61.05-7,.25-45.8,4.09-82.15,46.17-81.19,94s38.87,83.3,84.67,79.21c2.39-.21,4.74-.59,7.08-1a466.43,466.43,0,0,0,19.61,69.27c-2.11,1.23-4.21,2.51-6.26,3.94-39.18,27.45-51.7,81.64-28,121s74.74,49.06,113.92,21.6c2-1.4,3.9-2.92,5.76-4.46A414.32,414.32,0,0,0,983,1390.18c-1.29,2.12-2.56,4.26-3.7,6.51-22.07,43.47-7.42,95.23,32.73,115.61s90.57,1.67,112.64-41.8c1.14-2.25,2.13-4.54,3.08-6.83a413.37,413.37,0,0,0,68.28,13c-.15,2.41-.26,4.83-.21,7.29,1,47.83,38.87,83.3,84.66,79.21s82.15-46.17,81.19-94c-.05-2.5-.26-4.94-.5-7.37a466.6,466.6,0,0,0,67.49-25c1,2.13,2.13,4.26,3.37,6.31,23.73,39.39,74.73,49.06,113.92,21.61s51.71-81.64,28-121c-1.22-2-2.55-3.9-3.9-5.77a508.72,508.72,0,0,0,48.62-56.41C1620.56,1282.73,1622.53,1283.92,1624.61,1285Zm-500.42,6.35c-145.75-74-199-261.93-118.82-419.75s263.23-225.76,409-151.76,199,261.93,118.82,419.74S1269.94,1365.33,1124.19,1291.33Z"/><path class="cls-197" d="M198.61,2601.27c34.37,6.64,104,20.08,150.62-12.09,84.57-58.4,78.61-257-28-340.88-9.22-7.25-57.31-43.63-123.15-39.66C83.86,2215.52-17.37,2339.8,2.51,2439.4c11.64,58.3,62.54,97,83.5,113C94.65,2559,135.36,2589.07,198.61,2601.27Z"/><path class="cls-198" d="M3101.72,164.78c-14.42,2.78-43.62,8.42-63.17-5.08-35.46-24.48-33-107.76,11.75-142.94,3.87-3,24-18.3,51.64-16.63,47.9,2.88,90.35,55,82,96.77-4.88,24.44-26.23,40.69-35,47.38A115.7,115.7,0,0,1,3101.72,164.78Z"/></g></g></g></g></svg>