<svg xmlns="http://www.w3.org/2000/svg" width="354.92" height="773.97" viewBox="0 0 354.92 773.97">
  <path id="navlogo" d="M1084.7-274.513q124.785-12.825,249.54-25.73-90.7,153.525-181.07,307.25c-11.11,19.09-22.6,37.99-33.5,57.18,48.1.02,96.22-.15,144.32.09q-134.22,204.6-268.1,409.45c14.46-78.25,29.47-156.42,44.12-234.64,4.54-23.69,8.84-47.42,13.5-71.08-.33-.14-.98-.41-1.31-.54-24.3-2.58-48.59-5.42-72.88-8.06,6.29-38.35,13.19-76.63,19.68-114.96q23.235-134.355,46.38-268.73c2.62-15.59,5.52-31.14,7.96-46.76C1063.706-272.683,1074.266-273.253,1084.7-274.513Z" transform="translate(-979.316 300.243)" fill="#fff"/>
</svg>
