<svg xmlns="http://www.w3.org/2000/svg" width="410.939" height="84.866" viewBox="0 0 410.939 84.866">
  <g id="proxy" transform="translate(-1332.659 -79.242)">
    <g id="Path_864" data-name="Path 864" transform="translate(0 -11.652)" fill="none" stroke-linecap="round" stroke-linejoin="round">
      <path d="M1402.568,122.359c0,17.977-13.569,28.947-35.279,28.947h-13.682v21.6h-19.448V93.751H1367.4C1389.112,93.751,1402.568,104.605,1402.568,122.359Zm-35.731,12.777c10.177,0,16.283-4.183,16.283-12.777,0-8.368-6.106-12.438-16.283-12.438h-13.229v25.216Z" stroke="none"/>
      <path d="M 1334.159057617188 93.75099182128906 L 1334.159057617188 172.9022369384766 L 1353.607299804688 172.9022369384766 L 1353.607299804688 151.3056030273438 L 1367.289306640625 151.3056030273438 C 1388.999267578125 151.3056030273438 1402.567993164063 140.3362884521484 1402.567993164063 122.3588256835938 C 1402.567993164063 104.605224609375 1389.112060546875 93.75099182128906 1367.401977539063 93.75099182128906 L 1334.159057617188 93.75099182128906 M 1366.836791992188 135.1361846923828 L 1353.607299804688 135.1361846923828 L 1353.607299804688 109.92041015625 L 1366.836791992188 109.92041015625 C 1377.013427734375 109.92041015625 1383.119873046875 113.9904479980469 1383.119873046875 122.3588256835938 C 1383.119873046875 130.9527435302734 1377.013427734375 135.1361846923828 1366.836791992188 135.1361846923828 M 1334.159057617188 92.25099182128906 L 1367.401977539063 92.25099182128906 C 1372.908935546875 92.25099182128906 1377.984252929688 92.93623352050781 1382.48681640625 94.28767395019531 C 1386.97216796875 95.63397216796875 1390.869873046875 97.63414001464844 1394.071533203125 100.2326202392578 C 1400.611328125 105.5403442382813 1404.067993164063 113.1914672851563 1404.067993164063 122.3588256835938 C 1404.067993164063 131.6255645751953 1400.593139648438 139.3632202148438 1394.01904296875 144.7352905273438 C 1387.55810546875 150.0149383544922 1378.315063476563 152.8056030273438 1367.289306640625 152.8056030273438 L 1355.107299804688 152.8056030273438 L 1355.107299804688 172.9022369384766 C 1355.107299804688 173.7306518554688 1354.435668945313 174.4022369384766 1353.607299804688 174.4022369384766 L 1334.159057617188 174.4022369384766 C 1333.330688476563 174.4022369384766 1332.659057617188 173.7306518554688 1332.659057617188 172.9022369384766 L 1332.659057617188 93.75099182128906 C 1332.659057617188 92.92257690429688 1333.330688476563 92.25099182128906 1334.159057617188 92.25099182128906 Z M 1366.836791992188 133.6361846923828 C 1371.663818359375 133.6361846923828 1375.382202148438 132.6733856201172 1377.888793945313 130.7745513916016 C 1380.364501953125 128.8991088867188 1381.619873046875 126.0676422119141 1381.619873046875 122.3588256835938 C 1381.619873046875 118.7686767578125 1380.369750976563 116.0265960693359 1377.904418945313 114.2087707519531 C 1375.39501953125 112.3585510253906 1371.67138671875 111.42041015625 1366.836791992188 111.42041015625 L 1355.107299804688 111.42041015625 L 1355.107299804688 133.6361846923828 L 1366.836791992188 133.6361846923828 Z" stroke="none" fill="#fff"/>
    </g>
    <g id="Path_865" data-name="Path 865" transform="translate(-688.22 -11.652)" fill="none" stroke-linecap="round" stroke-linejoin="round">
      <path d="M2151.162,172.9l-19.448-24.424h-9.725V172.9h-19.448V93.751h34.374c21.936,0,35.166,10.176,35.166,27.476,0,12.665-7.01,21.371-19.449,25.1l21.145,26.573Zm-29.173-62.982v22.954h14.361c10.289,0,16.282-3.167,16.282-11.307,0-7.916-5.993-11.647-16.282-11.647Z" stroke="none"/>
      <path d="M 2173.777099609375 172.9022369384766 L 2152.6318359375 146.3293762207031 C 2165.070556640625 142.5982818603516 2172.080810546875 133.8924255371094 2172.080810546875 121.2270889282227 C 2172.080810546875 103.9274291992188 2158.851318359375 93.75099182128906 2136.9150390625 93.75099182128906 L 2102.541015625 93.75099182128906 L 2102.541015625 172.9022369384766 L 2121.989013671875 172.9022369384766 L 2121.989013671875 148.4777526855469 L 2131.7138671875 148.4777526855469 L 2151.162353515625 172.9022369384766 L 2173.777099609375 172.9022369384766 M 2121.989013671875 109.9204025268555 L 2136.349853515625 109.9204025268555 C 2146.638916015625 109.9204025268555 2152.6318359375 113.6515045166016 2152.6318359375 121.567512512207 C 2152.6318359375 129.7075042724609 2146.638916015625 132.8742065429688 2136.349853515625 132.8742065429688 L 2121.989013671875 132.8742065429688 L 2121.989013671875 109.9204025268555 M 2173.777099609375 174.4022369384766 L 2151.162353515625 174.4022369384766 C 2150.70556640625 174.4022369384766 2150.2734375 174.1940155029297 2149.989013671875 173.8366088867188 L 2130.99072265625 149.9777526855469 L 2123.489013671875 149.9777526855469 L 2123.489013671875 172.9022369384766 C 2123.489013671875 173.7306518554688 2122.8173828125 174.4022369384766 2121.989013671875 174.4022369384766 L 2102.541015625 174.4022369384766 C 2101.712646484375 174.4022369384766 2101.041015625 173.7306518554688 2101.041015625 172.9022369384766 L 2101.041015625 93.75099182128906 C 2101.041015625 92.92256927490234 2101.712646484375 92.25099182128906 2102.541015625 92.25099182128906 L 2136.9150390625 92.25099182128906 C 2142.479248046875 92.25099182128906 2147.578857421875 92.89598846435547 2152.072509765625 94.16808319091797 C 2156.569091796875 95.44097900390625 2160.462646484375 97.34181213378906 2163.64501953125 99.81777954101563 C 2166.869873046875 102.3267822265625 2169.3544921875 105.4162902832031 2171.02978515625 109.0005035400391 C 2172.72265625 112.6219711303711 2173.580810546875 116.735595703125 2173.580810546875 121.2270889282227 C 2173.580810546875 127.8316345214844 2171.771240234375 133.4927062988281 2168.2021484375 138.0530548095703 C 2165.07421875 142.0496520996094 2160.689208984375 145.0797576904297 2155.145751953125 147.0795440673828 L 2174.950927734375 171.9682312011719 C 2175.309326171875 172.4188842773438 2175.37841796875 173.0350341796875 2175.128173828125 173.5537872314453 C 2174.878173828125 174.072509765625 2174.35302734375 174.4022369384766 2173.777099609375 174.4022369384766 Z M 2123.489013671875 131.3742065429688 L 2136.349853515625 131.3742065429688 C 2141.361083984375 131.3742065429688 2145.123291015625 130.5806427001953 2147.531982421875 129.0155487060547 C 2149.954345703125 127.4416046142578 2151.1318359375 125.0053329467773 2151.1318359375 121.567512512207 C 2151.1318359375 118.1705551147461 2149.94287109375 115.6984252929688 2147.4970703125 114.0098571777344 C 2145.00830078125 112.2916259765625 2141.2578125 111.4204025268555 2136.349853515625 111.4204025268555 L 2123.489013671875 111.4204025268555 L 2123.489013671875 131.3742065429688 Z" stroke="none" fill="#fff"/>
    </g>
    <g id="Path_866" data-name="Path 866" transform="translate(-1364.788)" fill="none" stroke-linecap="round" stroke-linejoin="round">
      <path d="M2857.914,121.675c0-23.745,17.978-40.933,42.855-40.933,24.762,0,42.741,17.074,42.741,40.933,0,23.745-17.979,40.933-42.855,40.933C2875.892,162.608,2857.914,145.533,2857.914,121.675Zm65.356,0c0-14.36-9.272-23.972-22.5-23.972-13.343,0-22.615,9.612-22.615,23.972s9.272,23.972,22.615,23.972C2914,145.647,2923.271,136.035,2923.271,121.675Z" stroke="none"/>
      <path d="M 2900.76904296875 80.74200439453125 C 2875.892333984375 80.74200439453125 2857.9140625 97.92973327636719 2857.9140625 121.6747360229492 C 2857.9140625 145.5333557128906 2875.892333984375 162.6076049804688 2900.655517578125 162.6076049804688 C 2925.531494140625 162.6076049804688 2943.510498046875 145.4198608398438 2943.510498046875 121.6747360229492 C 2943.510498046875 97.81622314453125 2925.531494140625 80.74200439453125 2900.76904296875 80.74200439453125 M 2900.76904296875 145.6467590332031 C 2887.426025390625 145.6467590332031 2878.154296875 136.0347290039063 2878.154296875 121.6747360229492 C 2878.154296875 107.3148498535156 2887.426025390625 97.70272827148438 2900.76904296875 97.70272827148438 C 2913.998046875 97.70272827148438 2923.2705078125 107.3148498535156 2923.2705078125 121.6747360229492 C 2923.2705078125 136.0347290039063 2913.998046875 145.6467590332031 2900.76904296875 145.6467590332031 M 2900.76904296875 79.24200439453125 C 2907.03271484375 79.24200439453125 2912.974365234375 80.29823303222656 2918.42919921875 82.38134765625 C 2923.763916015625 84.4185791015625 2928.485107421875 87.3778076171875 2932.4619140625 91.17681884765625 C 2936.448974609375 94.98587036132813 2939.556640625 99.51385498046875 2941.6982421875 104.6349639892578 C 2943.89599609375 109.8906860351563 2945.010498046875 115.6236877441406 2945.010498046875 121.6747360229492 C 2945.010498046875 146.2619934082031 2926.3564453125 164.1076049804688 2900.655517578125 164.1076049804688 C 2894.3916015625 164.1076049804688 2888.449951171875 163.0513916015625 2882.9951171875 160.96826171875 C 2877.660400390625 158.9310150146484 2872.939208984375 155.9718017578125 2868.96240234375 152.1727600097656 C 2864.975341796875 148.3637084960938 2861.86767578125 143.8357086181641 2859.726318359375 138.7145385742188 C 2857.5283203125 133.4588623046875 2856.4140625 127.725830078125 2856.4140625 121.6747360229492 C 2856.4140625 97.08753967285156 2875.068115234375 79.24200439453125 2900.76904296875 79.24200439453125 Z M 2900.76904296875 144.1467590332031 C 2913.33056640625 144.1467590332031 2921.7705078125 135.1159362792969 2921.7705078125 121.6747360229492 C 2921.7705078125 108.2335357666016 2913.33056640625 99.20272827148438 2900.76904296875 99.20272827148438 C 2888.1396484375 99.20272827148438 2879.654296875 108.2335357666016 2879.654296875 121.6747360229492 C 2879.654296875 135.1159362792969 2888.1396484375 144.1467590332031 2900.76904296875 144.1467590332031 Z" stroke="none" fill="#fff"/>
    </g>
    <g id="Path_867" data-name="Path 867" transform="translate(-2097.66 -11.652)" fill="none" stroke-linecap="round" stroke-linejoin="round">
      <path d="M3759.257,172.9h-22.615l-18.771-26.12-18.883,26.12h-22.841l29.738-40.819-27.815-38.332H3700.8l17.074,24.2,16.961-24.2h22.729L3729.745,132.2Z" stroke="none"/>
      <path d="M 3759.25732421875 172.9022369384766 L 3729.74462890625 132.1964111328125 L 3757.561279296875 93.75099182128906 L 3734.832763671875 93.75099182128906 L 3717.8720703125 117.9484634399414 L 3700.7978515625 93.75099182128906 L 3678.070556640625 93.75099182128906 L 3705.885986328125 132.0829010009766 L 3676.14794921875 172.9022369384766 L 3698.989013671875 172.9022369384766 L 3717.8720703125 146.78173828125 L 3736.642578125 172.9022369384766 L 3759.25732421875 172.9022369384766 M 3759.25732421875 174.4022369384766 L 3736.642578125 174.4022369384766 C 3736.15966796875 174.4022369384766 3735.706298828125 174.1697387695313 3735.424560546875 173.7775726318359 L 3717.868408203125 149.3471069335938 L 3700.20458984375 173.7810363769531 C 3699.922607421875 174.1711730957031 3699.470458984375 174.4022369384766 3698.989013671875 174.4022369384766 L 3676.14794921875 174.4022369384766 C 3675.58349609375 174.4022369384766 3675.06689453125 174.0854187011719 3674.81103515625 173.5823516845703 C 3674.55517578125 173.0792999267578 3674.603271484375 172.4751739501953 3674.935546875 172.0189971923828 L 3704.031494140625 132.0811614990234 L 3676.8564453125 94.6319580078125 C 3676.525390625 94.17555236816406 3676.47802734375 93.57197570800781 3676.734130859375 93.06961059570313 C 3676.990478515625 92.56725311279297 3677.506591796875 92.25099182128906 3678.070556640625 92.25099182128906 L 3700.7978515625 92.25099182128906 C 3701.285400390625 92.25099182128906 3701.742431640625 92.48787689208984 3702.0234375 92.88617706298828 L 3717.867919921875 115.340934753418 L 3733.6044921875 92.89003753662109 C 3733.88525390625 92.48948669433594 3734.343505859375 92.25099182128906 3734.832763671875 92.25099182128906 L 3757.561279296875 92.25099182128906 C 3758.124755859375 92.25099182128906 3758.640869140625 92.56684112548828 3758.897216796875 93.06868743896484 C 3759.153564453125 93.57054138183594 3759.10693359375 94.17372131347656 3758.776611328125 94.63027191162109 L 3731.5966796875 132.1955108642578 L 3760.4716796875 172.0217742919922 C 3760.802734375 172.4782104492188 3760.849609375 173.0816802978516 3760.593505859375 173.5838775634766 C 3760.33740234375 174.0860900878906 3759.821044921875 174.4022369384766 3759.25732421875 174.4022369384766 Z" stroke="none" fill="#fff"/>
    </g>
    <g id="Path_868" data-name="Path 868" transform="translate(-2808.21 -11.652)" fill="none" stroke-linecap="round" stroke-linejoin="round">
      <path d="M4550.308,93.751l-30.643,50.2V172.9H4500.1V143.616l-30.643-49.865h21.145l19.336,34.035,19.223-34.035Z" stroke="none"/>
      <path d="M 4469.4609375 93.75099182128906 L 4500.103515625 143.6164855957031 L 4500.103515625 172.9022369384766 L 4519.66552734375 172.9022369384766 L 4519.66552734375 143.9554595947266 L 4550.30810546875 93.75099182128906 L 4529.1640625 93.75099182128906 L 4509.94140625 127.7859497070313 L 4490.60546875 93.75099182128906 L 4469.4609375 93.75099182128906 M 4469.4609375 92.25099182128906 L 4490.60546875 92.25099182128906 C 4491.14501953125 92.25099182128906 4491.64306640625 92.54084777832031 4491.90966796875 93.01004028320313 L 4509.9375 124.7425689697266 L 4527.85791015625 93.01333618164063 C 4528.1240234375 92.54228210449219 4528.623046875 92.25099182128906 4529.1640625 92.25099182128906 L 4550.30810546875 92.25099182128906 C 4550.8505859375 92.25099182128906 4551.3505859375 92.54385375976563 4551.6162109375 93.01689147949219 C 4551.8818359375 93.48992919921875 4551.87109375 94.06944274902344 4551.58837890625 94.53245544433594 L 4521.16552734375 144.3770751953125 L 4521.16552734375 172.9022369384766 C 4521.16552734375 173.7306518554688 4520.494140625 174.4022369384766 4519.66552734375 174.4022369384766 L 4500.103515625 174.4022369384766 C 4499.27490234375 174.4022369384766 4498.603515625 173.7306518554688 4498.603515625 172.9022369384766 L 4498.603515625 144.04052734375 L 4468.18310546875 94.53631591796875 C 4467.8984375 94.07347106933594 4467.88671875 93.49301147460938 4468.15185546875 93.01887512207031 C 4468.4169921875 92.54472351074219 4468.91748046875 92.25099182128906 4469.4609375 92.25099182128906 Z" stroke="none" fill="#fff"/>
    </g>
  </g>
</svg>
