<svg xmlns="http://www.w3.org/2000/svg" width="43.415" height="35.284" viewBox="0 0 43.415 35.284">
  <g id="twitter" transform="translate(-540.179 -569.858)">
    <path id="path3611" d="M553.833,605.142c16.384,0,25.343-13.573,25.343-25.343q0-.578-.025-1.151a18.111,18.111,0,0,0,4.443-4.612,17.761,17.761,0,0,1-5.115,1.4,8.938,8.938,0,0,0,3.917-4.927,17.862,17.862,0,0,1-5.656,2.162,8.915,8.915,0,0,0-15.179,8.123,25.29,25.29,0,0,1-18.36-9.307,8.915,8.915,0,0,0,2.758,11.892,8.841,8.841,0,0,1-4.034-1.114c0,.037,0,.074,0,.114a8.91,8.91,0,0,0,7.146,8.732,8.892,8.892,0,0,1-4.023.153,8.917,8.917,0,0,0,8.321,6.187,17.869,17.869,0,0,1-11.063,3.813,18.093,18.093,0,0,1-2.125-.123,25.214,25.214,0,0,0,13.654,4" fill="#fff"/>
  </g>
</svg>
